<?xml version="1.0" encoding="utf-8"?>
<!-- Generator: Adobe Illustrator 22.0.1, SVG Export Plug-In . SVG Version: 6.00 Build 0)  -->
<svg version="1.1" id="Calque_1" xmlns="http://www.w3.org/2000/svg" xmlns:xlink="http://www.w3.org/1999/xlink" x="0px" y="0px"
	 viewBox="0 0 432 432" style="enable-background:new 0 0 432 432;" xml:space="preserve">
<style type="text/css">
	.st0{fill:#E6E6E6;}
	.st1{fill:#F5D63D;}
	.st2{fill:#78C5D6;}
	.st3{fill:#E868A2;}
	.st4{fill:#459BA8;}
	.st5{fill:#BF62A6;}
	.st6{fill:#F28C33;}
	.st7{fill:#333333;}
	.st8{fill:#1A1A1A;}
	.st9{fill:#79C267;}
	.st10{fill:#71796A;}
	.st11{fill:#8B8285;}
	.st12{fill:#E3A8A4;}
	.st13{fill:#842258;}
	.st14{fill:#300D28;}
	.st15{fill:#36463C;}
	.st16{fill:#FF7470;}
	.st17{fill:#FFE7DD;}
	.st18{fill:#A67C52;}
	.st19{fill:#9FC8C2;}
	.st20{fill:#C1272D;}
	.st21{fill:#B98D4D;}
	.st22{fill:#9DA34B;}
	.st23{fill:#664931;}
	.st24{fill:#748D91;}
	.st25{fill:#F1D2CD;}
	.st26{fill:#FFFFFF;}
	.st27{fill:#C7B299;}
	.st28{fill:#ED1C24;}
	.st29{fill:#7F3762;}
	.st30{fill:#EC1C24;}
	.st31{fill:#B93545;}
	.st32{fill:#E791A0;}
	.st33{fill:#78071D;}
	.st34{fill:#80424C;}
	.st35{fill:#8C6239;}
	.st36{fill:#C69C6D;}
	.st37{fill:#D6B6BA;}
	.st38{fill:#DED2D3;}
	.st39{fill:#B58187;}
	.st40{fill:#7D6364;}
	.st41{fill:#700F3A;}
	.st42{fill:#A46779;}
	.st43{fill:#BC7A98;}
	.st44{fill:#934251;}
	.st45{fill:#313133;}
	.st46{fill:#8C9976;}
	.st47{fill:#596A58;}
	.st48{fill:#CFCAC7;}
	.st49{fill:#D6D39C;}
	.st50{fill:#F2F2F2;}
	.st51{fill:#ED61A0;}
	.st52{fill:#B3A9B7;}
	.st53{fill:#C38B88;}
	.st54{fill:#EDE3E3;}
	.st55{fill:#59476C;}
	.st56{fill:#A7343B;}
	.st57{fill:#F5CECE;}
	.st58{fill:#F78298;}
	.st59{fill:#DE5463;}
	.st60{fill:#7FA4AD;}
	.st61{fill:#9EBCC6;}
	.st62{fill:#E693BF;}
	.st63{fill:#6D5F76;}
	.st64{fill:#FE7F6C;}
	.st65{fill:#603813;}
	.st66{fill:#F0A1A5;}
	.st67{fill:#F60424;}
	.st68{fill:#754C24;}
	.st69{fill:#568445;}
	.st70{fill:#5A4740;}
	.st71{fill:#DDB458;}
	.st72{fill:#D6A14D;}
	.st73{fill:#E3A1BC;}
	.st74{fill:#E5EAA4;}
	.st75{fill:#CEE4EA;}
	.st76{fill:#D8CABF;}
	.st77{fill:#F2E2D4;}
	.st78{fill:#D9C0E0;}
	.st79{fill:#ECC0C2;}
	.st80{fill:#FFDCF4;}
	.st81{fill:#D3E4B0;}
	.st82{fill:#F7FFB4;}
	.st83{fill:#E6F7CE;}
	.st84{fill:#7A9EC7;}
	.st85{fill:#A5C0DF;}
	.st86{fill:#FBB03B;}
	.st87{fill:#F0829E;}
	.st88{fill:#998675;}
	.st89{fill:#A04D7A;}
	.st90{fill:#872B5A;}
	.st91{fill:#A70808;}
	.st92{fill:#42210B;}
	.st93{fill:#CCCCCC;}
	.st94{fill:#B3A18D;}
	.st95{fill:#C6AC8F;}
	.st96{fill:#301506;}
	.st97{fill:#B3A6AD;}
	.st98{fill:#E74C6E;}
	.st99{fill:#F8D9C4;}
	.st100{fill:#CA1542;}
	.st101{fill:#F2A297;}
	.st102{fill:#4D4D4D;}
	.st103{fill:#006837;}
	.st104{fill:#F2B4C0;}
	.st105{fill:#D39253;}
	.st106{fill:#C6824A;}
	.st107{fill:#6B4220;}
	.st108{fill:#936B47;}
	.st109{fill:#F9D7DD;}
	.st110{fill:#3B3735;}
	.st111{fill:#1C7C48;}
	.st112{fill:#A71916;}
	.st113{fill:#7E1710;}
	.st114{fill:#DC4060;}
</style>
<g>
	<path class="st23" d="M378,234.5c-0.2-1.5-0.8-2.9-1.8-4.1c-1.3-1.7-3-2.9-4.9-3.9c-3.4-1.7-6.9-2.8-10.6-3.5
		c-0.6-0.1-1.2-0.2-1.9-0.4c0.2-0.3,0.3-0.4,0.4-0.5c1.6-1.8,2.9-3.9,3.9-6.2c0.4-0.9,0.7-1.8,0.9-2.8c0.3-1.7-1.1-2.9-2.7-2.3
		c-0.5,0.2-1,0.5-1.6,0.8c-1.9,1-3.8,2.1-5.7,3.1c-0.9,0.5-1.8,0.9-2.8,1.2c-1.2,0.4-2.4,0.6-3.9,0.5c0.3-0.3,0.5-0.4,0.7-0.6
		c0.6-0.6,1.3-1.1,1.8-1.8c0.4-0.5,0.7-1.1,0.8-1.7c0.4-1.4-0.7-2.7-2.1-2.6c-0.8,0-1.6,0.3-2.3,0.6c-3.1,1.2-6.4,2.1-9.8,2.2
		c-5.8,0.1-11-1.6-15.8-4.8c-4.5-3-8-7.1-10.7-11.8c-1.3-2.3-2.5-4.6-3.7-6.9c-2-3.6-3.8-7.3-5.9-10.8c-4.5-7.4-10.9-12.5-19-15.4
		c-2.4-0.9-4.9-1.5-7.3-2.1c-3.3-0.8-6.7-1-10.1-1.3c-3.1-0.3-6.2-0.6-9.4-0.5c-5.9,0.1-11.7,0.7-17.5,1.5c-3,0.4-6,0.8-9,1.2
		c-3.8,0.5-7.6,1.1-11.3,1.6c-0.3,0-0.5,0-0.8,0c0.3-0.3,0.5-0.5,0.8-0.6c1.3-0.5,2.6-1,3.8-1.5c1.3-0.5,2.5-0.9,3.8-1.5
		c1.2-0.5,1.6-1.2,1.3-1.9c-0.3-0.8-1-0.9-2.2-0.6c-0.7,0.2-1.3,0.4-2,0.5c-4.3,0.5-8.7,0.9-13.1,0.5c-1.9-0.2-3.8-0.4-5.7-1
		c0.4-0.1,0.8-0.2,1.2-0.2c4.2-0.3,8.3-0.7,12.5-1c0.3,0,0.6,0,0.9-0.1c0.7-0.2,1-0.7,1.1-1.4c0-0.6-0.4-1.2-1-1.4
		c-0.3-0.1-0.6-0.1-0.9-0.1c-3.4-0.3-6.8-0.6-10.2-0.9c-4.5-0.4-9-0.6-13.5-0.4c-7.5,0.4-14.5-1.1-21-5.2c-0.3-0.2-0.5-0.3-1-0.6
		c0.3,0,0.4,0,0.4,0c0.6,0.2,1.1,0.3,1.7,0.5c3.5,1,7.1,1.7,10.8,1.6c2-0.1,3.9-0.1,5.9-0.1c0.3,0,0.6,0,0.9-0.1
		c0.6-0.2,0.9-0.6,0.9-1.1c0-0.5-0.3-0.9-0.8-1c-0.3-0.1-0.7-0.1-1.1-0.2c-0.9-0.1-1.9-0.1-2.8-0.2c-4.2-0.3-8.4-1-12.3-2.7
		c-0.2-0.1-0.5-0.2-0.7-0.4c0.5-0.2,1-0.2,1.5-0.3c0.9-0.1,1.9-0.3,2.8-0.5c0.7-0.2,1.1-0.8,1.1-1.6c0-0.7-0.4-1.2-1.1-1.5
		c-0.3-0.1-0.7-0.2-1-0.3c-2-0.5-4.1-1-6.1-1.6c-4.1-1.3-7.6-3.6-11.1-6c-0.2-0.2-0.4-0.3-0.6-0.5c1.3,0.2,2.5,0.7,3.7,1.4
		c0.7,0.4,1.2,0.3,1.6-0.2c0.4-0.5,0.3-1-0.2-1.6c-0.4-0.4-0.9-0.8-1.3-1.1c-2.4-1.8-5-3.1-7.7-4.3c-3.6-1.6-7.3-3.3-10.9-5
		c-0.7-0.3-1.3-0.7-2-1.1c0.4,0,0.8,0.1,1.2,0.2c1.7,0.5,3.3,1.1,5,1.6c1.4,0.4,2.8,0.6,4.2,0.9c0.8,0.1,1.5-0.3,1.8-1
		c0.3-0.7-0.1-1.5-0.9-1.9c-0.2-0.1-0.3-0.1-0.5-0.2c-1.1-0.5-2.2-1-3.2-1.5c-4.2-2.3-7.9-5.1-11.4-8.2c-3.2-2.8-6.3-5.5-9.8-7.9
		c-4.2-2.9-8.9-4.4-13.9-4.7c-3.3-0.2-6.5-0.4-9.8-0.5c-0.7,0-1.3-0.2-1.9-0.6c-2.3-1.7-4.6-3.4-6.9-5.2c-0.5-0.4-1-0.8-1.5-1.1
		c-1.7-1-3.2-0.5-4.1,1.2c-0.5,1-0.7,2.1-0.7,3.3c0,0.5,0,0.9,0,1.4c-1.9-0.1-3.4-0.8-4.9-1.6c-1.8-0.9-3.5-1.9-5.3-2.8
		c-1-0.5-2-1-3.1-1.3c-2.2-0.7-4.1,0.5-4.6,2.7c-0.1,0.6-0.1,1.2-0.1,1.8c0.1,1.8,0.9,3.4,1.9,4.8c1.9,2.7,4.4,4.8,7.2,6.6
		c0.4,0.2,0.7,0.5,1.2,0.8c-0.6,0.5-1.1,1-1.6,1.4c-2.3,2.2-4.5,4.3-6.8,6.5c-2.3,2.3-3.8,5.2-4.1,8.5c-0.2,2.6-1.2,4.9-2.6,7
		c-2.2,3.2-4,6.6-5.6,10.1c-1.1,2.3-2.4,4.5-4,6.5c-0.6,0.8-1.2,1.6-1.7,2.4c-1.1,1.8-1.7,3.7-1.5,5.8c0.2,3.2,1.2,6.2,3.1,8.8
		c0.4,0.5,0.7,1,1.1,1.5c1.6,2.1,3.6,3.9,6,5c2.6,1.1,5.2,1.2,7.7-0.5c1.7-1.1,3.2-2.5,4.4-4.1c1.8-2.3,3.5-4.6,5.1-6.9
		c1.2-1.7,2.6-2.9,4.5-3.6c0.6-0.2,1.2-0.4,1.7-0.6c1.9-0.7,3.7-1.3,5.6-2c4.1-1.6,7.8-3.8,10.9-6.9c0.1-0.1,0.3-0.3,0.4-0.4
		c0.7-0.5,1.4-0.3,1.6,0.5c0.1,0.5,0.1,1,0.1,1.5c-0.2,1.6-0.4,3.1-0.2,4.7c0.1,0.9,0.1,1.8,0.2,2.7c0.3,4.4,0.6,8.7,1.1,13.1
		c0.4,4.6,1,9.1,1.5,13.7c0.3,2.8,0.6,5.5,0.4,8.3c-0.3,4.7-0.9,9.4-1.3,14.1c-0.3,3.3-0.7,6.5-0.9,9.8c-0.3,4.3,0.3,8.6,1.4,12.8
		c0.7,2.9,1.5,5.9,1.2,8.9c-0.1,2.1-0.3,4.3-0.6,6.4c-0.2,1.6-0.6,3.2-1,4.8c-0.4,1.8-1.5,3.1-3,4.1c-0.9,0.6-1.8,1.2-2.8,1.7
		c-2,1.2-3.4,2.8-4.4,4.9c-0.8,1.8-1.6,3.5-2.2,5.3c-2.4,7.4-4.9,14.7-8.1,21.8c-0.5,1.2-0.9,2.4-1.3,3.6c-1.1,3.7,0,6.3,3.4,8
		c1.3,0.7,2.7,1.2,4.1,1.7c2.4,0.9,4.9,1.8,7.4,2.8c-0.1,0.3-0.2,0.6-0.3,0.9c-1.2,2.9-2.2,5.9-3.5,8.8c-0.8,1.7-1.7,3.4-2.7,5
		c-1.6,2.6-3.7,4.5-6.7,5.5c-3.1,1.1-5.9,2.7-8.5,4.6c-3,2.2-5.8,4.8-8,7.9c-0.8,1.1-1.4,2.4-1.7,3.8c-0.2,1.5,0.4,2.9,1.7,3.6
		c0.8,0.4,1.7,0.6,2.6,0.7c3.5,0.3,6.9,0.2,10.4-0.2c2.4-0.3,4.7-0.8,6.9-1.7c2.4-1,4-2.7,4.8-5.2c0.4-1.3,0.8-2.6,1.3-3.8
		c0.5-1.6,1.5-2.8,2.9-3.8c0.5-0.3,1-0.7,1.4-1c2.8-1.8,4.7-4.3,5.8-7.4c0.5-1.6,0.9-3.2,1.3-4.8c0.3-1.4,0.6-2.8,1-4.3
		c0.2,0.1,0.4,0.1,0.5,0.1c2,0.8,4-0.3,4.9-1.6c0.4-0.6,0.8-1.3,1.1-2c0.8-1.8,1.2-3.7,1.3-5.6c0.1-2.2,0.7-4.3,1.8-6.2
		c2-3.5,3.4-7.2,4.3-11.1c1.8-7.7,4.6-15,7.6-22.3c0.1-0.3,0.3-0.5,0.3-0.8c0.1-0.4,0.4-0.6,0.8-0.6c1.6-0.3,3.1-0.6,4.7-0.9
		c4.2-0.7,8.4-1.7,12.5-3c3-1,5.1-2.9,6.3-5.8c0.4-1,0.8-2,1.2-3.1c0.7-1.8,0.9-1.9,2.8-1.5c4.6,0.8,9.1,1.5,13.8,1.7
		c8.5,0.4,17,0,25.5-1.3c2.8-0.4,5.5-0.8,8.3-1.2c0.4-0.1,0.8,0,1.3,0c0.3,1.8,0.6,3.4,0.8,5.1c0.7,5.4,2.2,10.7,4.4,15.7
		c1.7,3.8,4,7.3,6.4,10.6c0.9,1.2,1.7,2.4,2.5,3.6c0.7,1.1,0.7,1.9-0.2,2.9c-0.6,0.7-1.3,1.4-2,2c-0.8,0.6-1.6,1.2-2.5,1.8
		c-5.8,3.8-11.5,7.8-17.4,11.5c-3.4,2.2-6.2,4.8-8.3,8.2c-4.4,7-7.6,14.6-9.9,22.5c-0.2,0.8-0.3,1.7-0.3,2.6c0,1.5,1,2.7,2.5,2.9
		c0.8,0.1,1.8,0.1,2.6-0.1c1.8-0.5,3.7-1,5.4-1.6c1.5-0.5,2.9-1.2,4.3-1.8c1.4-0.6,2.4-1.6,3.2-2.9c0.6-1,1.1-2,1.4-3.1
		c0.6-2.3,1.1-4.6,1.6-6.9c0.1-0.6,0.2-1.2,0.4-1.9c0.5,0.1,0.9,0.1,1.3,0.2c0.9,0.2,1.8,0,2.6-0.6c0.6-0.4,1.1-1,1.5-1.5
		c0.7-0.9,1.3-1.9,2-2.9c1.1-1.8,2.6-3.3,4.2-4.5c2.4-1.8,5.1-3.3,7.7-4.7c5.2-2.8,10.3-5.5,15.5-8.3c1.3-0.7,2.5-1.3,3.7-2.1
		c0.8-0.5,1.6-1.1,2.3-1.7c1.8-1.7,2.3-3.8,1.3-6.1c-0.3-0.8-0.7-1.5-1.1-2.2c-0.9-1.5-1.9-2.9-2.9-4.4c-0.7-1-1.4-2-2-3
		c-2-3.4-2.5-7.1-1.5-11c0.7-2.7,2-5.2,3.5-7.5c2.2-3.4,4.4-6.7,6.6-10c0.1-0.2,0.4-0.4,0.6-0.7c0.2,0.7,0.4,1.2,0.6,1.8
		c1.1,4.7,2.4,9.3,3.2,14c1,5.4,3.2,10.1,6.7,14.4c3.3,4.1,7,7.8,10.9,11.3c1.4,1.3,2.8,2.6,4.1,3.9c2.6,2.6,3.9,5.9,3.9,9.6
		c0,2.7-0.1,5.4-0.3,8.1c-0.5,4.6-1.2,9.1-1.7,13.7c-0.3,3.2-1.6,5.8-4.4,7.7c-1.2,0.8-2.4,1.8-3.6,2.7c-3,2.3-5.7,4.9-8,7.9
		c-0.4,0.5-0.8,1.1-1.1,1.7c-0.9,1.7-0.4,3.3,1.1,4.3c0.6,0.4,1.3,0.7,2,0.9c1.4,0.4,2.8,0.7,4.3,0.9c1.9,0.3,3.8,0.6,5.7,0.9
		c2.5,0.3,4.2-0.7,5.4-2.9c0.4-0.8,0.8-1.6,1.3-2.4c0.7-1.4,1.8-2.5,3.2-3.2c1.1-0.6,2.2-1.1,3.3-1.7c0.8-0.5,1.6-1,2.3-1.6
		c1.5-1.3,2.3-3,2.2-5c-0.1-1.2-0.2-2.5-0.3-3.7c-0.3-2.5-0.3-5,0-7.5c0.5-4.3,1.4-8.6,2.5-12.7c1-3.7,2-7.3,3-10.9
		c1-3.5,0.7-6.9-1.3-10.1c-0.9-1.5-1.9-2.9-2.9-4.4c-0.8-1.2-1.7-2.3-2.5-3.4c-1.6-2.3-2.7-4.8-3.5-7.5c-0.9-3.3-0.7-6.7-0.1-10
		c0.8-4.2,1.7-8.3,2.6-12.5c1.6-7.1,3.3-14.2,4.1-21.4c0.7-5.7,1-11.5,0.4-17.2c0-0.3,0-0.6,0-1.2c0.2,0.4,0.4,0.6,0.5,0.7
		c1.8,3.3,3.6,6.7,5.3,10c1.5,2.9,2.6,6,3.2,9.3c0.3,1.9,0.7,3.7,1,5.6c0.1,0.4,0.2,0.7,0.3,1c0.3,0.8,0.8,1.3,1.7,1.4
		c0.9,0.1,1.5-0.4,1.9-1.1c0.2-0.4,0.4-0.8,0.5-1.2c0.2-1.1,0.4-2.3,0.4-3.5c0.1-1.1-0.1-2.2-0.1-3.4c0.2,0.2,0.4,0.4,0.5,0.6
		c0.8,0.9,1.5,1.9,2.3,2.8c2.6,2.8,5.5,5.3,8.6,7.6c4.7,3.4,9.5,6.7,14.2,10c0.4,0.3,0.8,0.5,1.3,0.6c1.4,0.4,2.6-0.8,2.2-2.2
		c-0.1-0.5-0.4-1-0.7-1.4c-0.8-1-1.7-2-2.5-3c-0.2-0.2-0.3-0.4-0.6-0.8c0.5,0.2,0.8,0.3,1.1,0.4c2.7,1.1,5.5,1.9,8.5,2
		c4,0.2,8,0.2,12,0.3c2.1,0.1,4.3,0.2,6.4,0.3c1.1,0.1,2.1,0.3,3.1,0.4c0.8,0.1,1.5-0.1,1.9-0.9c0.4-0.7,0.2-1.4-0.3-2
		c-0.3-0.4-0.8-0.7-1.2-0.9c-0.7-0.4-1.5-0.7-2.3-0.9c-2.3-0.6-4.6-0.9-6.9-1c-0.3,0-0.6,0-0.9-0.1c0.2-0.2,0.3-0.2,0.5-0.3
		c2.2-0.2,4.5-0.4,6.7-0.5c4.5-0.3,8.9,0.2,13.1,2c0.3,0.1,0.6,0.2,0.9,0.3c1.7,0.4,3-0.4,3.2-2.1C378,235.4,378,234.9,378,234.5z
		 M272.9,164.9c0.1-0.6,0.6-0.9,1.5-0.9c0.1,0,0.1,0,0.2,0c0,0,0-0.1,0-0.1c1,0.3,2,0.5,3,0.9c3.9,1.6,7,4.2,9.3,7.8
		c0.2,0.3,0.3,0.6,0.4,1c0.1,0.4,0,0.8-0.4,1.1c-0.4,0.3-0.8,0.3-1.2,0c-0.3-0.2-0.6-0.5-0.8-0.9c-2.7-3.9-6.4-6.3-10.9-7.7
		C273.2,165.7,272.8,165.4,272.9,164.9z M232.7,161.5c0.8,0,1.5,0,2.3,0.2c2.6,0.5,4.2,2.2,5.3,4.5c0.1,0.2,0.2,0.4,0.1,0.6
		c-0.1,0.3-0.2,0.7-0.4,0.8c-0.2,0.1-0.7,0-0.9-0.1c-0.3-0.3-0.6-0.6-0.8-1c-1.7-2.8-5.2-3.1-7.5-2.2c-1.2,0.5-2.1,1.4-2.4,2.7
		c-0.8,3.4,1,5.2,3.7,5.5c1.9,0.2,3.1-1.1,2.7-3c-0.1-0.5-0.5-0.9-0.8-1.2c-0.2-0.2-0.7-0.1-1,0c-0.4,0.1-0.4,0.6-0.3,0.9
		c0,0.1,0.1,0.3,0.1,0.4c0.1,0.4-0.1,0.7-0.5,0.8c-0.6,0.1-1.3-0.2-1.6-0.9c-0.5-0.8-0.3-2,0.4-2.7c0.9-1.1,2.5-1.3,3.8-0.7
		c1,0.5,1.6,1.2,1.9,2.3c0.9,3.1-1.1,6-4.3,6.1c-3.8,0.2-6.6-2.5-6.6-6.2C225.8,165.1,228.4,161.6,232.7,161.5z M238.6,209.3
		c-0.1,0.6-0.5,0.9-1,1c-0.5,0.1-0.8-0.2-1.1-0.5c-1.1-1.4-1.6-3-1.6-4.8c0-1.2,0.7-2,1.6-2.1c0.9-0.1,1.8,0.5,2.1,1.6
		c0.2,0.7,0.3,1.6,0.5,2.3C238.9,207.7,238.8,208.5,238.6,209.3z M240,213.3c1,1.4,1.8,2.9,1.7,4.6c0,1.3-1.2,1.9-2.3,1.2
		c-1.1-0.7-1.6-1.8-1.7-3.5c0.2-0.5,0.4-1.4,0.8-2.2C238.7,212.8,239.6,212.7,240,213.3z M236.7,211.2c0.4,0,0.8,0.2,0.9,0.7
		c0.1,0.5-0.2,0.8-0.5,1c-1.5,0.8-3.1,1.2-4.8,1c-0.9-0.1-1.5-0.7-1.6-1.3c-0.1-0.6,0.5-1.2,1.5-1.5c0.3-0.1,0.6-0.1,1-0.1
		c0.4,0,0.8,0,1.3,0C235.1,211,235.9,211.1,236.7,211.2z M230.5,195.3c0,0.5-0.4,0.9-0.9,0.9c-0.5,0-0.9-0.4-1-1c0-0.5,0.4-1,0.9-1
		C230.1,194.2,230.5,194.7,230.5,195.3z M194.5,163.9c0.6,0.1,1,0.5,1,1.1c0,0.6-0.6,1.1-1.2,1.1c-0.6,0-1.1-0.6-1-1.2
		C193.3,164.3,193.9,163.9,194.5,163.9z M186.8,160.1c0.6,0,1.2,0.5,1.2,1.2c0,0.7-0.5,1.2-1.2,1.2c-0.6,0-1.1-0.5-1.1-1.1
		C185.6,160.7,186.1,160.1,186.8,160.1z M179.1,159.4c0.8,0,1.6,0.8,1.6,1.6c0,0.7-0.6,1.4-1.4,1.4c-0.8,0-1.7-0.8-1.7-1.6
		C177.6,160.1,178.3,159.4,179.1,159.4z M169.4,160.2c0.6-0.6,1.3-0.7,2.1-0.4c0.9,0.4,1.6,1.3,1.6,2.3c0,1-0.6,1.9-1.5,2.1
		c-0.9,0.2-1.7-0.2-2.3-1.1c-0.1-0.1-0.1-0.2-0.1-0.3C168.7,161.8,168.8,160.8,169.4,160.2z M165,167.9c0,1.6-1.2,2.8-2.8,2.9
		c-1.6,0-2.9-1.2-3-2.8c0-1.7,1.4-3.1,3-3.1C163.8,164.9,165,166.2,165,167.9z M118.2,111.3c0.1-1.8,0.5-3.5,1.6-4.9
		c0.6-0.7,1.3-1.3,2-1.8c2.2-1.2,4.6-0.3,5.7,1.9c1.1,2.1,0,4.6-1.3,5.7c-0.5,0.4-1.1,0.4-1.5,0.1c-0.4-0.3-0.6-0.9-0.3-1.5
		c0.1-0.3,0.4-0.5,0.5-0.8c0.2-0.5,0.4-0.9,0.5-1.4c0.1-0.7-0.3-1.2-0.8-1.6c-0.6-0.3-1.1-0.2-1.6,0.1c-0.8,0.5-1.3,1.3-1.6,2.3
		c-0.5,1.6-0.5,3.2-0.1,4.7c0.2,1,0.6,2,1,3c1.4,2.9,3.1,5.6,5.1,8.1c0.1,0.1,0.2,0.2,0.5,0.5c-0.1-0.6-0.2-0.9-0.2-1.3
		c-0.4-1.9-0.3-3.8,0.5-5.6c0.8-1.8,2.2-2.9,4.3-3.2c2.6-0.3,5,1.5,5.5,4.1c0.3,1.9-1.2,4.1-3.1,4.4c-1.1,0.2-2.1-0.3-2.4-1.2
		c-0.1-0.4-0.1-0.7,0.2-1c0.3-0.3,0.7-0.2,1,0.1c0.3,0.2,0.4,0.7,0.9,0.5c0.4-0.2,0.8-0.4,1.1-0.7c0.9-1,0.8-2.3-0.3-3.3
		c-1.6-1.4-4-1.2-5.1,0.8c-0.7,1.2-0.7,2.5-0.6,3.8c0.2,2.4,1,4.5,2.2,6.6c0.3,0.4,0.6,0.8,1,1.2c1.7,1.8,3.4,3.5,5,5.3
		c1.6,1.9,3.1,3.9,4.7,5.9c0.1,0.2,0.3,0.4,0.6,0.5c-0.1-0.4-0.3-0.7-0.4-1.1c-0.5-1.8-1.1-3.6-1.5-5.3c-0.3-1.1-0.2-2.3,0.1-3.5
		c0.3-1.1,0.8-2.1,1.8-2.8c1.1-0.8,2.3-1,3.6-0.4c1.3,0.6,2,1.7,2.1,3.1c0.1,1.4-1.1,2.7-2.3,3.1c-0.3,0.1-0.8-0.1-1-0.3
		c-0.2-0.3-0.3-0.8-0.2-1.1c0.1-0.4,0.5-0.6,0.7-0.9c0.4-0.5,0.4-0.8,0-1.2c-0.4-0.4-0.9-0.5-1.3-0.2c-0.4,0.3-0.7,0.8-0.8,1.2
		c-0.4,1-0.4,2-0.1,3c0.5,1.8,1,3.5,1.5,5.2c0.8,2.5,1.8,4.9,2.2,7.4c0.2,1.1,0.2,2.3,0.3,3.7c0.2-0.3,0.3-0.5,0.4-0.6
		c1.8-3,4.2-5.4,6.6-7.8c1.2-1.3,2.6-1.1,3.5,0.5c1.9,3.1,2.5,6.6,2,10.2c-0.6,4.7-3,8.3-7,10.8c-0.6,0.4-1,0.8-1,1.6
		c0,0.6-0.1,1.2-0.2,1.8c-0.4,2.4-0.3,4.9-0.1,7.3c0,0.3,0.1,0.6,0.1,0.9c-0.2,1.4,0.4,2.5,1,3.7c2.2,4,5,7.4,8.7,10.1
		c0.3,0.2,0.5,0.4,0.8,0.5c0.1,0,0.1,0,0.3,0.1c0-0.3,0-0.6,0-0.8c0.1-2.6,2.9-4.4,5.3-3.3c1.3,0.6,1.9,2.5,1.2,3.7
		c-0.2,0.3-0.6,0.4-0.9,0.1c-0.3-0.3-0.5-0.7-0.8-1c-0.4-0.5-0.9-0.5-1.5-0.3c-0.6,0.2-0.8,0.6-0.6,1.2c0.2,0.8,0.6,1.6,0.9,2.3
		c0.1,0.2,0.3,0.4,0.6,0.5c2.2,0.9,4.5,1.8,6.9,1.9c6.6,0.3,10.3-3.2,12.2-8.4c2.3-6.2-0.3-11.9-4.1-15c-2.2-1.8-4.6-2.2-7.1-0.9
		c-2.6,1.3-4,3.5-4.1,6.5c-0.1,2.5,1.5,4.6,3.9,5.4c1.6,0.5,3.1-0.1,3.7-1.6c0.3-0.7,0.2-1.1-0.4-1.6c-0.1-0.1-0.3-0.2-0.4-0.3
		c-0.5-0.5-0.7-1.1-0.4-1.6c0.3-0.5,0.9-0.7,1.6-0.4c1.4,0.5,2.1,1.5,2.3,3c0.2,2.4-1.7,4.9-4.2,5.4c-2.9,0.6-6.2-0.9-7.9-3.6
		c-1.3-2.1-1.8-4.4-1.1-6.8c1.2-4.2,3.9-7,8.3-7.8c2.6-0.5,5.1,0.2,7.2,1.8c3.2,2.5,5.2,5.8,6,9.7c0.3,1.4,0.3,2.9,0.5,4.4
		c0.2-0.2,0.4-0.4,0.6-0.6c5.8-6.5,13-10.7,21.4-12.7c3-0.7,6-0.5,8.9,0.5c6.2,2.2,9.3,8.7,7.2,14.9c-1,3-2.9,5.3-5.7,6.8
		c-2.9,1.6-5.7,1.4-8.3-0.5c-2.8-2-3.3-5.8-1.1-8.5c0.5-0.6,1.1-1.1,2-1.3c0.5-0.1,0.9,0,1.3,0.4c0.3,0.4,0.3,0.8,0.1,1.2
		c-0.2,0.4-0.5,0.7-0.8,1.1c-1.9,2.3-0.6,4.5,1.6,5.2c1,0.3,2.1,0.4,3.1-0.1c5.3-2.4,7.5-9.9,2.7-14.5c-1.6-1.5-3.5-2.1-5.6-2.4
		c-3.1-0.5-6,0.2-8.9,1.2c-7.6,2.8-14,7-18.7,13.8c-1,1.4-1.9,2.7-2.9,4.1c-2.7,3.8-6.3,5.9-11,6.2c-3,0.2-5.9-0.5-8.6-1.5
		c-1.3-0.5-2.4-1.1-3.7-1.7c-0.5-0.2-1-0.3-1.5-0.3c-0.9,0-1.6,0.7-1.6,1.6c0,0.7,0.8,1.4,1.6,1.4c0.3,0,0.7-0.1,1,0
		c0.3,0.1,0.7,0.4,0.7,0.7c0.1,0.3-0.1,0.7-0.4,0.9c-0.5,0.5-1.2,0.7-1.9,0.5c-1.6-0.3-2.8-1-3.4-2.6c-0.5-1.5,0-2.8,1-3.9
		c0.2-0.2,0.4-0.4,0.7-0.6c-0.2-0.2-0.4-0.4-0.6-0.6c-4-3.2-7-7.2-9-12c-0.1-0.3-0.3-0.6-0.5-0.8c-1.3-1-2.5-2-3.8-2.9
		c-1.8-1.4-3.7-2.4-5.8-3.1c-0.5-0.2-0.9-0.2-1.3,0.1c-3.8,2.5-7.9,2.5-12.1,1.2c-3.3-1-6.3-2.6-9.2-4.5c-0.2-0.2-0.5-0.3-0.7-0.5
		c-0.9-0.9-0.8-2,0.1-2.7c0.1-0.1,0.3-0.2,0.5-0.3c3.1-1.8,6.3-3,9.8-3.5c0.2,0,0.4-0.1,0.8-0.2c-0.4-0.3-0.6-0.4-0.8-0.6
		c-1.8-1.3-3.2-3-4.4-4.9c-0.6-0.9-1.2-1.8-1.9-2.7c-0.7-1-1.7-1.7-2.8-2.2c-0.3-0.1-0.6-0.2-0.9-0.3c-0.7-0.1-1.2,0.1-1.4,0.5
		c-0.2,0.5,0,1.1,0.5,1.6c0.2,0.1,0.4,0.2,0.6,0.4c0.2-0.2,0.5-0.3,0.7-0.5c0.4-0.2,0.8-0.3,1.1,0.1c0.2,0.3,0.4,0.7,0.3,1.1
		c-0.1,1.1-1.3,1.8-2.4,1.6c-1.8-0.3-3.3-2.2-3.2-4c0.1-1.8,1.8-3.3,3.8-3.1c1,0.1,2,0.5,2.8,1c1.1,0.7,2.1,1.7,2.9,2.8
		c0.2,0.3,0.5,0.6,0.8,1c0-0.2,0-0.3,0-0.4c-0.8-2.9-1.5-5.8-2.4-8.7c-0.4-1.5-1-2.9-1.6-4.3c-0.4-0.9-1.1-1.7-2-2.3
		c-0.6-0.4-1.1-0.5-1.8-0.4c-0.7,0.1-1.2,0.8-1.2,1.5c0,0.7,0.4,1.2,1.2,1.3c0.1,0,0.1,0,0.2,0c0.7,0.1,1.1,0.4,1,0.9
		c0,0.4-0.5,0.8-1.1,0.8c-1.9,0.2-3.5-1.7-3.1-3.7c0.5-2,2.4-3.2,4.5-2.7c1.3,0.3,2.4,1.1,3.2,2.2c0.7,1,1.2,2,1.8,3.1
		c0.2,0.3,0.3,0.7,0.6,1.3c0.2-0.7,0.1-1.2,0-1.7c-0.3-2.8-0.5-5.6-0.8-8.4c-0.3-2.5-1.2-4.9-2.4-7.1c-0.7-1.4-1.6-2.6-2.9-3.5
		c-0.5-0.3-1.2-0.6-1.8-0.7c-1.3-0.2-2.2,1.1-1.7,2.4c0.3,0.7,0.8,1.1,1.5,1.3c0.2,0,0.4,0,0.5,0c0.8,0.1,1.1,0.4,1.2,0.9
		c0,0.6-0.3,1-1.1,1.1c-0.4,0.1-0.8,0.1-1.2,0c-2.2-0.6-3.9-2.9-3-5.5c0.7-2,2.5-3,4.6-2.5c1.4,0.3,2.5,1,3.5,2
		c1.1,1.1,2,2.3,2.7,3.7c1.7,3.4,2.6,6.9,3,10.7c0.3,3.3,0.5,6.7,0.9,10c0.4,3.3,1.1,6.6,2.6,9.6c0.9,1.7,1.9,3.3,3.3,4.6
		c0.2,0.2,0.5,0.5,0.9,0.8c-0.1-0.3-0.1-0.4-0.1-0.5c-2.2-3.8-3.1-7.9-3.6-12.2c-0.2-1.8-0.4-3.7-0.5-5.5c0-0.4,0-0.7,0-1.1
		c0.2-1.2,1.2-1.8,2.4-1.4c0.4,0.1,0.7,0.3,1.1,0.5c2.6,1.8,5.2,3.6,7.6,5.7c1.7,1.6,3.4,3.3,4.6,5.3c0.1,0.1,0.2,0.3,0.3,0.4
		c0.1,0,0.1-0.1,0.2-0.1c-0.1-0.4-0.1-0.9-0.3-1.3c-1.3-3.7-3.2-7.1-5.7-10.1c-1.8-2-3.6-4-5.5-6c-1.8-2-3.8-3.9-5.6-5.8
		c-3-3.2-5.5-6.7-7.5-10.6C118.7,116.8,118,114.2,118.2,111.3z M221.6,199c0,0.5-0.7,1.1-1.3,1.1c-0.6,0-1.1-0.5-1.1-1.1
		c0-0.6,0.5-1.1,1.1-1.1C221,198,221.6,198.5,221.6,199z M214,198.6c0,0.7-0.6,1.4-1.3,1.4c-0.7,0-1.4-0.6-1.4-1.4
		c0-0.7,0.6-1.4,1.4-1.4C213.4,197.3,213.9,197.9,214,198.6z M207.8,197.9c0,1.1-0.8,2-1.9,2c-1.3,0-1.9-1-2-2.3
		c-0.1-1,0.7-1.8,1.8-1.8C206.8,195.8,207.7,196.8,207.8,197.9z M200.9,196.9c0,1.3-0.4,2.3-1.6,2.8c-1.1,0.5-2.4,0.3-3.4-0.7
		c-1.3-1.2-1.6-2.9-0.8-4.3c0.7-1.2,2-1.7,3.3-1.4c1.2,0.3,2.3,1.4,2.5,2.6C200.9,196.3,200.9,196.6,200.9,196.9z M114.7,228.7
		c0.7,0,1.1,0.5,1.1,1.2c0,0.7-0.5,1.2-1.2,1.2c-0.7,0-1.3-0.7-1.2-1.3C113.5,229.1,114,228.6,114.7,228.7z M112.4,223.1
		c-0.9,0-1.6-0.7-1.6-1.6c0-1.1,0.6-1.8,1.5-1.8c0.9,0,1.7,0.9,1.7,1.8C114,222.4,113.2,223.1,112.4,223.1z M112.1,215.6
		c-1.3,0-2.5-1.3-2.5-2.7c0-1.3,1.2-2.6,2.6-2.6c1.4,0,2.7,1.2,2.7,2.6C114.9,214.3,113.5,215.6,112.1,215.6z M112.6,180.7
		c0.1-0.1,0.4-0.1,0.7-0.1c0.1,0,0.1,0,0.2,0.1c1.3,0.8,2.7,1.1,4.2,1.5c0.5,0.1,0.9,0.3,0.9,0.9c0,0.4-0.4,0.6-1.4,0.6
		c-1.1-0.1-2.3-0.3-3.3-1c-0.5-0.3-0.9-0.8-1.3-1.3C112.5,181.3,112.5,180.9,112.6,180.7z M111.2,172.4c-1.6-3.1-1.9-6.3-0.7-9.6
		c0.2-0.6,0.4-1.2,1.2-1.5c0.1,0.4,0.2,0.7,0.2,1c-0.1,0.9-0.2,1.7-0.3,2.6c-0.6,5,3.1,11.3,8.4,12.7c0.7,0.2,1.4,0.4,2.1,0.7
		c0.3,0.1,0.6,0.3,0.8,0.5c0.2,0.2,0.3,0.6,0.2,0.9c-0.1,0.2-0.5,0.4-0.8,0.5c-0.1,0.1-0.3,0-0.4-0.1
		C117.2,179.2,113.4,176.8,111.2,172.4z M93.1,91.9c0.4-0.4,1-0.4,1.7,0.1c0.2,0.1,0.4,0.3,0.5,0.4c1.8,1.9,3.9,3.4,5.9,4.9
		c0.3,0.2,0.6,0.5,0.8,0.8c0.5,0.8-0.1,1.7-1.2,1.6c-0.1-0.1-0.4-0.1-0.7-0.3c-2.2-1.3-4.3-2.8-6.1-4.6c-0.4-0.4-0.8-0.9-1.1-1.3
		C92.6,92.9,92.7,92.3,93.1,91.9z M94.8,104.2c3,0.1,6,0.4,9,0.5c2.4,0.1,4.7,0.2,7.1-0.4c1.2-0.3,2.3-0.8,3.2-1.6
		c0.8-0.7,1.3-1.4,1.6-2.4c0.2-0.9-0.4-1.6-1.4-1.5c-0.4,0-0.6,0.2-0.6,0.6c0,0.3,0.1,0.7-0.1,1c-0.2,0.3-0.5,0.7-0.8,0.8
		c-0.4,0.2-0.8,0-1.1-0.4c-0.2-0.3-0.3-0.6-0.4-0.9c-0.3-1.4,0.5-2.8,1.9-3.3c2.4-0.9,4.9,0.9,4.7,3.5c-0.1,1.9-1.2,3.3-2.6,4.5
		c-1.6,1.3-3.4,2-5.5,2.3c-1.5,0.2-3,0.2-4.3,0.3c-2.8-0.2-5.4-0.4-8.1-0.6c-2.2-0.1-4.4-0.2-6.5,0.2c-2,0.4-3.9,1.1-5.5,2.5
		c-0.3,0.3-0.6,0.5-1,0.7c-0.2,0.1-0.7,0.2-0.8,0c-0.2-0.2-0.3-0.6-0.2-0.9c0.2-0.5,0.4-0.9,0.8-1.3c0.8-0.9,1.8-1.6,2.9-2.1
		C89.6,104.7,92.1,104.1,94.8,104.2z M77.7,94.4c-0.5-0.4-1-1-1.4-1.5c-0.3-0.4-0.4-0.9-0.1-1.3c0.4-0.4,0.8-0.4,1.3-0.2
		c0.4,0.2,0.8,0.4,1.1,0.7c2.6,1.9,5.4,3.5,8.2,4.9c0.7,0.3,1.3,0.7,2,1.1c0.2,0.1,0.5,0.3,0.7,0.5c0.3,0.3,0.5,0.8,0.2,1.2
		c-0.2,0.3-0.6,0.5-0.9,0.7c-0.5-0.1-0.8-0.2-1-0.3C84.1,98.8,80.7,96.9,77.7,94.4z M75.1,114.2c1.6-0.6,3.3-0.2,4.4,1.2
		c0.6,0.7,0.7,1.5,0.4,2.4c-0.1,0.3-0.4,0.6-0.6,0.8c-0.5,0.4-0.9,0.2-1-0.4c-0.2-0.8-0.6-1.4-1.4-1.5c-0.7-0.1-1.5,0.7-1.9,1.5
		c-0.3,0.8-0.1,1.5,0.5,2.1c1.5,1.7,4.2,2,6,0.6c0.4-0.3,0.7-0.6,1.1-0.9c0.4-0.3,0.8-0.4,1.2-0.1c0.5,0.3,0.5,0.8,0.4,1.3
		c-0.3,1.1-1,1.9-2,2.5c-1,0.7-2.2,0.9-3.5,1c-2.1-0.1-3.9-0.9-5.4-2.4C70.8,119.5,71.8,115.5,75.1,114.2z M94.5,142.9
		c-0.7,2.5-2.3,4.1-4.9,4.6c-1.8,0.3-3.3-0.3-4.6-1.5c-1.6-1.5-2.2-3.3-2.1-5.4c0.1-3.7,1.7-6.8,4.2-9.4c0.5-0.5,0.9-0.9,1.5-1.3
		c0.3-0.2,0.7-0.4,1-0.6c0.4-0.1,0.9,0,1.2,0.4c0.3,0.4,0.3,0.8,0.1,1.2c-0.2,0.4-0.5,0.7-0.7,1.1c-0.5,0.7-1.1,1.4-1.6,2.1
		c-1.4,1.8-2.2,3.9-2.4,6.2c-0.2,1.9,0.6,3.4,2,4c0.9,0.4,1.8,0.4,2.6-0.2c0.8-0.6,1.4-1.5,1.3-2.6c-0.1-1-0.7-1.3-1.6-0.9
		c-0.7,0.2-1.1,0.2-1.4-0.2c-0.3-0.4-0.2-0.9,0.2-1.4c0.7-0.9,1.8-1.2,3.1-0.7C94,138.8,95.1,140.9,94.5,142.9z M97.6,128.5
		c-0.4,0.4-0.7,0.7-1.2,1c-1.4,0.9-2.7,0.4-3.2-1.1c-0.2-0.5-0.2-1.1-0.3-1.7c-0.1-2,0.5-4,1-5.9c0.2-0.5,0.3-1.1,0.4-1.7
		c-1.3,1.1-2.6,2.2-3.8,3.3c0.1,2.4-1,3.5-3.3,2.9c-0.6,0.5-1.2,1.1-1.8,1.6c-0.6,0.6-1.1,1.1-1.7,1.7c0,0.2,0,0.3,0,0.4
		c0.9,2.1-1,4-3,4c-0.4,0-0.8-0.1-1,0.1c-0.5,0.5-0.9,1.1-1.4,1.7c-0.1,0.1,0,0.3,0,0.5c0.4,1.8-0.3,2.7-2.2,2.7c-0.1,0-0.2,0-0.4,0
		c-0.5,0.8-1.1,1.6-1.7,2.4c-0.3,0.4-0.3,0.7,0,1.1c1.2,2.2,2.4,4.5,3.7,6.7c1,1.6,1.2,3.1,0.6,5c-1,3.1-2.6,5.8-4.2,8.6
		c-0.1,0.2-0.3,0.4-0.5,0.6c-1.1,1.3-2.5,1.5-3.8,0.4c-1.3-1.1-2.5-2.3-3.9-3.5c-0.2,0.2-0.4,0.5-0.7,0.7c-1,0.8-2,1.7-3.1,2.4
		c-1.3,0.9-2.4,0-2.7-1c-0.2-0.9-0.4-1.9-0.5-2.8c-0.2-4.2,0.5-8.3,1.6-12.3c0.5-1.6,1.5-2.8,2.9-3.5c1.2-0.6,2.4-1.1,3.7-1.6
		c1.2-0.5,2.4-0.9,3.6-1.3c0.4-0.2,0.9-0.2,1.5-0.4c0.5-0.7,1-1.5,1.5-2.3c0.1-0.2,0.2-0.6,0.1-0.9c-0.3-1.4,0.5-2.6,1.9-2.7
		c0.6,0,0.9-0.2,1.2-0.6c0.1-0.2,0.3-0.4,0.4-0.5c0.5-0.5,0.6-0.9,0.4-1.6c-0.4-1.1,0-2.3,0.6-3.2c0.6-0.9,1.6-1.2,2.6-0.9
		c0.4,0.1,0.8,0.2,1.2,0.4c1.1-1,2.2-1.9,3.3-2.9c0.1-0.1,0.2-0.4,0.2-0.7c0.1-1.6,1.3-2.6,2.9-2.5c0.2,0,0.5,0.1,0.6-0.1
		c1.2-1,2.4-1.9,3.8-3.1c-1.8-0.2-3.4-0.5-5-0.7c-0.9-0.1-1.8-0.1-2.7-0.2c-0.9-0.1-1.9-0.3-2.2-1.3c-0.3-1.1,0.3-1.8,1.1-2.4
		c0.7-0.5,1.4-0.9,2.1-1.3c2.3-1.2,4.9-1.8,7.4-2.1c3.6-0.5,7.2-0.8,10.9-0.5c0.9,0.1,1.7,0.2,2.6,0.4c1.5,0.4,2.2,1.6,1.8,3.1
		c-0.3,1.1-0.7,2.1-1.3,3.1c-1.7,2.9-3.7,5.6-6,8C100.6,125.5,99.1,127,97.6,128.5z M108.1,138c-0.3,0-0.5,0-0.6,0
		c-2.4,0-4.1-1.2-4.8-3.3c-0.5-1.5-0.6-3-0.1-4.5c0.7-2.1,3.2-3.6,5.4-3.2c0.2,0,0.6,0.1,0.7,0.2c0.3,0.2,0.5,0.5,0.6,0.9
		c0.1,0.4-0.2,0.8-0.6,0.9c-0.4,0.1-0.8,0.2-1.3,0.3c-1.8,0.3-2.6,1.1-2.7,2.9c0,0.8,0.1,1.6,0.4,2.3c0.6,1.5,3.3,1.7,4.3,0.4
		c0.3-0.4,0.3-0.9,0-1.2c-0.3-0.3-0.7-0.3-1.2,0c-0.4,0.3-0.7,0.6-1.1,0.3c-0.4-0.3-0.5-0.8-0.4-1.3c0.2-1,1.4-1.8,2.6-1.6
		c1.7,0.3,3.4,2.4,2.3,4.5C111,137.1,109.7,137.7,108.1,138z M105.6,262.7c1.2,0,2.3,0.2,3.3,0.8c0.6,0.3,1.1,0.8,1,1.6
		c-0.1,0.7-0.6,1.2-1.2,1.4c-0.3,0.1-0.7,0.2-1.1,0.2c-1.4,0.1-2.7-0.2-4-0.8c-0.8-0.4-1.1-0.9-1-1.5c0.1-0.8,0.6-1.3,1.3-1.4
		C104.5,262.8,105.1,262.8,105.6,262.7z M111.5,266c0.2-0.3,0.4-0.5,0.8-1c0.2,1.4,0.3,2.5,0.1,3.7c-0.7,4.1-2.6,7.6-5.9,10.3
		c-0.7,0.6-1.5,0.9-2.5,1c-0.8,0.1-1.4-0.5-1.4-1.3c0.2-1.4,0.4-2.8,1.4-4c0.5-0.7,1.1-1.4,1.7-2C107.9,270.7,109.8,268.4,111.5,266
		z M101.8,257.2c0.2-0.5,0.5-1,0.9-1.3c0.8-0.7,1.8-0.4,2,0.6c0.1,0.5,0.1,1.2-0.1,1.7c-0.6,1.3-1.2,2.5-1.9,3.7
		c-0.1,0.2-0.6,0.5-0.9,0.4c-0.4,0-0.7-0.4-0.7-0.8c0-0.2,0-0.4,0-0.5c0,0-0.1,0-0.1,0C101.1,259.6,101.4,258.4,101.8,257.2z
		 M98.1,267.9c0.4-1.2,1-2.3,1.8-3.3c0.3-0.4,0.7-0.7,1.2-0.5c0.5,0.2,0.6,0.6,0.6,1c0,0.3,0,0.7,0,1c0,0,0.1,0,0.1,0
		c-0.2,1.1-0.3,2.2-0.5,3.3c-0.2,0.6-0.5,1.3-0.9,1.8c-0.4,0.5-1,0.8-1.7,0.5c-0.7-0.3-1-0.8-1-1.5
		C97.7,269.5,97.9,268.7,98.1,267.9z M93.6,329.9c-0.1,0.4-0.3,0.8-0.5,1.1c-0.6,0.7-1.2,1.5-1.9,2.1c-1.5,1.1-3,2.1-4.5,3.2
		c-0.2,0.1-0.5,0.2-0.6,0.3c-0.9,0-1.5-0.8-1.1-1.5c0.2-0.3,0.5-0.6,0.7-0.8c1-0.7,2-1.4,2.9-2.1c1-0.8,2-1.6,3.1-2.4
		c0.3-0.2,0.5-0.5,0.8-0.6c0.3-0.1,0.7-0.1,0.9,0C93.6,329.2,93.7,329.7,93.6,329.9z M110.3,297.9c-3.4,9.1-7.7,17.7-14.8,24.7
		c-3,3-6.4,5.5-10.3,7.2c-2.4,1-4.8,2.2-7.3,2.8c-0.2,0.1-0.5,0.1-0.7,0.2c-0.6,0-1-0.2-1.2-0.7c-0.2-0.5,0-0.9,0.4-1.2
		c0.3-0.2,0.7-0.4,1.1-0.5c2.2-0.9,4.4-1.8,6.5-2.7c3.5-1.5,6.6-3.7,9.3-6.4c4.1-4.1,7.5-8.7,10.1-13.9c1.2-2.5,2.5-4.9,3.7-7.4
		c0.4-0.9,0.9-1.7,1.5-2.5c0.2-0.4,0.6-0.7,0.9-0.9c0.5-0.3,1,0,1,0.6C110.5,297.3,110.4,297.6,110.3,297.9z M147.1,247.4
		c-0.8,1.8-2.2,2.9-4.3,3.1c-1.8,0.1-3.3-0.6-4.4-2c-0.6-0.8-1.1-1.6-1.7-2.4c-0.9-1.4-2-2.7-3.2-3.8c-1.2,0.5-2.3,0.9-3.4,1.3
		c-1.2,0.5-2.2,1.2-3.1,2.1c-0.7,0.7-1.1,1.4-1.2,2.4c-0.3,3.6-0.6,7.2-0.9,10.8c-0.5,7.3-2.3,14.3-6,20.7c-1.7,3.1-3.9,5.8-6.7,8
		c-1.5,1.2-3,2.1-4.8,2.8c-3.8,1.5-7.3,1-10.4-1.5c-3.8-3-5.2-7.1-4.5-11.8c0.1-0.6,0.4-1.3,0.8-1.8c0.9-1.3,2.4-1.8,4-1.3
		c1.5,0.4,2.6,1.9,2.7,3.4c0.1,1.3-0.5,2.3-1.5,2.8c-1,0.5-1.9,0.2-2.9-0.8c-0.1-0.1-0.2-0.1-0.3-0.3c0,0.7-0.1,1.4,0,2
		c0.5,4.2,3.9,7.5,8,7.8c1.2,0.1,2.4-0.2,3.5-0.6c2.1-0.9,3.9-2.2,5.6-3.8c1.6-1.5,2.9-3.3,4-5.1c1.7-2.8,3-5.8,3.9-9
		c0.1-0.3,0.2-0.6,0.2-1c-0.4-0.4-0.8-0.7-1.1-1c-1.8-1.7-3.6-3.4-5.2-5.2c-2.1-2.3-3.5-5.1-4-8.2c-0.3-2.5-0.3-5,0.8-7.3
		c0.4-0.9,1-1.8,1.7-2.5c1-1.1,2.3-1,3.1,0.2c1.9,2.7,4,5.4,5.4,8.5c0.4,1,0.8,2,1.1,3c0.1,0,0.1,0,0.2,0c0-0.3,0.1-0.7,0.1-1
		c0.2-3.2,0.5-6.5,1.2-9.6c0.4-1.8,1.1-3.4,2-4.9c1-1.9,1.1-3.9,1.1-6c-0.1-1.6-0.6-3-1.5-4.2c-0.7-1.1-1.4-2.3-2.1-3.4
		c-0.8-1.4-0.5-2.6,1-3.3c0.4-0.2,0.8-0.4,1.2-0.4c2-0.4,3.9-0.8,5.9-1.1c1-0.1,2-0.1,2.9,0.1c2.8,0.5,4.5,3.1,3.9,5.6
		c0,0.1,0,0.2,0,0.5c0.5-0.1,0.9-0.1,1.4-0.2c2.9-0.5,4.4,0.6,4.8,3.5c0,0.1,0.1,0.3,0.1,0.4c0.6,0.1,1.1,0.1,1.6,0.2
		c1.5,0.3,2.3,1.3,2.3,2.8c0,0.7-0.2,1.4-0.4,2.1c-0.1,0.4-0.1,0.7,0,1.1C148.9,241.7,148.3,244.6,147.1,247.4z M116.3,237.1
		c0-0.5,0.4-0.9,1-0.9c0.6,0,1.1,0.5,1.2,1.1c0,0.5-0.4,1-0.9,1C116.9,238.2,116.3,237.7,116.3,237.1z M137.4,210.4
		c0-1.2,0.2-1.8,1-2.2c0.7-0.3,1.3,0,1.9,0.4c0.8,0.7,1.3,1.5,1.7,2.5c0.6,1.6,0.8,3.3,1,5c0,0.4-0.1,0.9-0.5,1
		c-0.3,0.1-0.9,0.1-1.1-0.1C139.4,215.1,137.7,213,137.4,210.4z M148.7,226.5c-0.7,0.4-1.4,0.2-1.9-0.3c-0.6-0.5-1.3-1.1-1.7-1.8
		c-0.9-1.6-1.6-3.2-2.3-4.8c-0.4-0.9,0.2-1.6,1.2-1.4c2.4,0.5,5.3,3.5,5.7,5.9c0,0.2,0.1,0.4,0.1,0.5
		C149.7,225.4,149.5,226.1,148.7,226.5z M152.3,214.7c-0.5,0.6-1.1,1-1.8,1.3c-1.6,0.8-3.3,1.1-5,1.3c-0.5,0.1-1,0-1.3-0.5
		c-0.3-0.5,0-0.9,0.2-1.3c0.9-1.2,1.9-2.2,3.2-2.9c0.9-0.5,1.8-0.8,2.9-0.9c0.2,0,0.6,0.1,1,0.2
		C152.7,212.3,153.2,213.6,152.3,214.7z M151,202.5c-0.2-0.4-0.5-0.8-0.8-1.2c-1,0.7-1.9,1.3-2.9,1.9c-0.6,0.3-1.1,0.7-1.7,0.9
		c-1.7,0.5-3.2-0.9-2.9-2.7c0.2-1.2,0.8-2.1,1.7-2.9c0.7-0.6,1.5-1.1,2.2-1.6c-0.5-0.8-2.8-2.6-4.2-3.2c-0.1,1.2-0.1,2.5-0.3,3.7
		c-0.1,0.7-0.2,1.4-0.5,2c-0.6,1.3-2.1,1.5-3,0.4c-0.5-0.5-0.8-1.2-1-1.9c-0.5-1.7-0.5-3.4,0-5.1c0.1-0.2,0.1-0.4,0.2-0.6
		c0,0,0-0.1,0-0.2c-1.5-0.2-3.1-0.4-4.8,0c0.6,0.9,1.1,1.8,1.6,2.7c0.4,0.7,1,1.4,1.3,2.1c0.3,0.7,0.5,1.5,0.5,2.2
		c0,1.6-1.4,2.6-2.9,2.2c-0.7-0.2-1.3-0.5-1.9-0.9c-1.9-1.4-3.1-3.2-3.4-5.5c0-0.1-0.1-0.3-0.1-0.6c-1,0.8-1.9,1.5-2.5,2.5
		c-0.2,0.3-0.1,0.9,0,1.3c0.2,1.1,0.8,1.9,1.6,2.7c0.7,0.7,1.5,1.3,2.1,2.1c0.6,0.8,1.3,1.6,1.7,2.5c0.5,0.9,0.5,1.9-0.3,2.8
		c-0.7,0.8-1.7,1-2.7,0.8c-2.3-0.6-3.9-2.1-5.1-4c-0.3-0.4-0.5-1-0.8-1.5c-0.2,0.4-0.1,0.7,0,1c0.5,1.2,1,2.5,1.6,3.7
		c0.7,1.2,1.6,2.4,2.4,3.5c0.8,1.2,1.5,2.5,1.9,3.9c0.4,1.4,0.4,2.7-0.4,4c-0.8,1.3-2.2,1.7-3.6,1c-0.5-0.3-1-0.7-1.5-1.1
		c-1.1-1.1-1.8-2.4-2.3-3.9c-0.8-2.5-1.2-5.1-1.4-7.7c-0.1-2.3,0.4-4.6,1.2-6.7c0.1-0.3,0.2-0.6,0.3-0.9c0,0,0-0.1,0,0
		c-1.1,0-2.3,0.1-3.4,0c-1.3-0.1-2.4-0.7-3.3-1.6c-1.5-1.4-1.2-3.4,0.8-4.1c1.1-0.4,2.3-0.5,3.5-0.6c1.4-0.1,2.8-0.1,4.3-0.1
		c0.7,0,1.4-0.1,2.4-0.2c-0.5-0.4-0.7-0.6-1-0.9c-1.1-1-2-2.2-2.4-3.7c-0.4-1.2-0.3-2.3,0.3-3.4c0.9-1.8,2.8-2.2,4.4-1
		c0.5,0.4,0.9,0.8,1.3,1.3c0.6,0.8,1,1.6,1.5,2.4c0.4,0.6,0.8,1.2,1.2,1.6c1.8-0.3,3.4-0.6,5.2-1c-0.1-0.3-0.3-0.6-0.4-1
		c-0.4-1.1-0.7-2.2-0.3-3.4c0.1-0.4,0.3-0.9,0.6-1.3c0.9-1.3,2.5-1.5,3.7-0.4c0.5,0.5,0.9,1.1,1.2,1.8c0.3,0.9,0.5,1.8,0.7,2.7
		c0.1,0.4,0.2,0.9,0.3,1.3c0.2,1,0.7,1.7,1.8,2.1c1,0.4,2,1.1,2.9,1.7c0.2,0.1,0.5,0.3,0.8,0.5c0.1-0.5,0.1-0.8,0.2-1.1
		c0.2-1.1,0.7-2.1,1.7-2.7c1.1-0.7,2.2-0.4,2.7,0.8c0.3,0.7,0.4,1.4,0.4,2.1c0,1.6-0.1,3.2-0.2,4.8c0,0.7,0.2,1.2,0.5,1.8
		c2.5,3.8,4.3,7.9,5.2,12.3c0.1,0.6,0.1,1.2,0,1.8c0,0.3-0.3,0.6-0.6,0.7c-0.2,0-0.5-0.3-0.7-0.5c-0.2-0.4-0.3-0.8-0.5-1.2
		C153.9,208.4,152.6,205.4,151,202.5z M213.6,227.6c-0.7,1.4-1.7,2.6-2.8,3.6c-3.1,2.8-6.7,4.8-10.6,6.5c-2.7,1.2-5.6,2.1-8.5,2.3
		c-4.3,0.3-8.5,1.2-12.8,1c-2-0.1-3.9,0.2-5.9,0.2c-5.4-0.2-10.3-1.7-14.6-5.1c-1.4-1.1-2.5-2.3-3.4-3.8c-0.5-1-0.9-2-1-3.1
		c-0.1-2.1,1.1-3.7,3.1-4.2c2.1-0.6,4.3-0.4,6.4,0.1c1.4,0.4,2.7,0.9,4,1.3c0.3,0.1,0.6,0.2,1.1,0.4c-0.3-0.6-0.6-0.9-0.8-1.3
		c-1.2-2-2.3-4-2.7-6.3c-0.3-1.6-0.4-3.2,0.1-4.7c0.3-0.8,0.7-1.6,1.2-2.2c1.3-1.7,3.1-2.3,5.2-1.8c2.9,0.7,5.2,2.3,7,4.7
		c0.7,0.9,1.2,1.8,2,2.8c0.2-1.5,0.3-2.9,0.5-4.2c0.3-1.7,0.8-3.4,1.5-5c0.5-1.1,1.3-2.1,2.2-2.8c2.4-1.8,5.2-1.5,7.1,0.8
		c1.3,1.6,1.9,3.4,2.2,5.4c0.6,3.6,0.1,7.1-0.7,10.6c-0.1,0.2-0.1,0.5-0.2,0.7c0,0.1,0,0.1,0.1,0.3c0.3-0.2,0.6-0.4,0.9-0.6
		c2.9-2.2,6.1-3.7,9.7-4.3c1.7-0.3,3.4-0.3,5.1,0.1c0.5,0.1,1.1,0.3,1.5,0.5C213.9,221.1,215.1,224.4,213.6,227.6z M238.2,274.6
		c0.3,0.7,0.4,1.5,0.6,2.3c-0.1,1.6-0.6,3.1-1.6,4.3c-1,1.1-2,2.2-3.2,3.1c-1.9,1.4-3.9,2.7-6,3.8c-2.9,1.6-5.8,3.1-8.8,4.7
		c-4.5,2.4-8.9,4.8-13,7.9c-3.1,2.3-6,4.8-8.4,7.8c-2.7,3.4-4.6,7.1-5.3,11.3c-0.1,0.6-0.3,1.2-0.5,1.8c-0.1,0.2-0.1,0.4-0.2,0.6
		c-0.3,0.6-0.8,0.8-1.3,0.7c-0.5-0.1-0.8-0.6-0.7-1.2c0.1-1.1,0.2-2.2,0.4-3.4c0.9-4.9,3.4-9,6.6-12.7c3.3-3.7,7.1-6.7,11.3-9.4
		c3.4-2.2,7-4.2,10.6-6c3.2-1.6,6.4-3.3,9.5-5.1c1.8-1,3.4-2.1,4.9-3.5c0.5-0.4,0.9-0.9,1.3-1.3c1.7-2,2-3.6,0.8-5.9
		c-0.8-1.5-1.7-3-2.6-4.5c-0.5-0.8-0.9-1.6-1.4-2.4c-0.2-0.3-0.3-0.7-0.3-1c-0.1-0.7,0.5-1.1,1.1-0.8c0.3,0.2,0.6,0.4,0.8,0.7
		C235.1,268.8,236.9,271.5,238.2,274.6z M228.2,274.4c-0.4-0.6-0.8-1.2-1.1-1.9c-0.2-0.4-0.5-0.7-0.6-1.1c-0.2-0.7,0.4-1.3,1.1-1.1
		c0.1,0,0.3,0.1,0.4,0.2c1.9,1.2,2.8,3,3.1,4.8c-0.1,2-0.7,3.5-1.8,4.8c-0.5,0.6-1.1,1.2-1.8,1.8c-0.4,0.4-0.8,0.5-1.3,0.1
		c-0.4-0.3-0.5-0.8-0.2-1.3c0.3-0.6,0.8-1.1,1.1-1.7c0.4-0.7,0.9-1.5,1.2-2.3C228.7,276,228.6,275.2,228.2,274.4z M240.7,229.5
		c-1.7,1.2-3.6,1.5-5.6,1c-1.4-0.3-2.6-0.9-3.8-1.6c-0.3-0.2-0.5-0.3-0.9-0.6c0.3,3.9,0.4,7.6-0.2,11.4c0.6,0.1,1.1,0.2,1.6,0.3
		c2.1,0.5,4.1,1.2,5.8,2.5c1.2,0.8,2,1.9,2.2,3.4c0.4,2.7-2.1,5-4.8,4.3c-1.6-0.4-2.8-1.4-3.8-2.6c-0.7-0.9-1.3-1.9-2.1-2.9
		c-0.1,0.2-0.2,0.4-0.3,0.6c-0.7,2.1-1.5,4.2-2.2,6.3c-0.1,0.3-0.1,0.7-0.1,1c0.3,1.6,0.8,3.3,1.1,4.9c0.4,2.3,0.2,4.5-1,6.6
		c-0.3,0.5-0.6,1-1.1,1.4c-1.2,1.1-2.7,1-3.9-0.2c-0.9-1-1.2-2.1-1.3-3.4c0-1.6,0.2-3.1,0.9-4.6c0.7-1.5,1.5-3,2.3-4.5
		c0.2-0.5,0.4-0.9,0.6-1.4c0.7-2.1,1.4-4.2,2.1-6.3c0.1-0.3,0.2-0.7,0.3-1.2c-0.8,0.4-1.5,0.7-2.2,1c-2.7,1.2-5.3,1.1-7.9-0.1
		c-0.4-0.2-0.7-0.4-1-0.6c-1.8-1.3-1.8-3.5,0.1-4.7c1.3-0.8,2.7-1.2,4.2-1.3c2.5-0.1,5-0.1,7.4,0.9c0.1,0,0.3,0,0.5,0
		c0.6-3.4,0.5-6.7,0.1-10.3c-0.4,0.4-0.7,0.7-1,1c-1.6,1.6-3.5,2.9-5.8,3.2c-1.3,0.2-2.6-0.1-3.7-0.9c-1.4-1-1.9-2.6-1.1-4.1
		c0.6-1.3,1.7-2.1,3-2.6c2-0.8,4.1-1.4,6.3-1.6c0.3,0,0.6-0.1,1-0.1c0.1,0,0.2-0.1,0.3-0.2c-1.3-4.1-3.8-7.3-7.6-9.8
		c0.1,0.4,0.2,0.6,0.3,0.8c0.3,1,0.7,1.9,0.9,2.9c0.2,1.6-0.6,3-1.8,3.4c-1.3,0.4-2.8-0.3-3.6-1.7c-0.4-0.7-0.7-1.5-0.6-2.4
		c0.1-1.6,0.3-3.3,0.4-5c0.1,0.1,0,0-0.1-0.1c-2.6-0.9-5.3-1.2-8-0.4c-0.7,0.2-1.3,0.5-2,0.8c-0.4,0.2-0.7,0.4-1.1,0.1
		c-0.4-0.4-0.2-0.8,0-1.2c0.5-0.8,1.3-1.3,2.1-1.6c2.1-0.9,4.4-1.1,6.6-0.8c1,0.1,1.9,0.4,3,0.6c0.3-0.3,0.5-0.7,0.8-1
		c1.4-1.7,3.1-3,5.4-3.5c1-0.2,2,0,2.8,0.5c1.4,0.9,1.8,2.4,1,3.9c-0.7,1.2-1.8,1.9-3,2.5c-0.3,0.2-0.6,0.3-1.1,0.5
		c3.9,2.7,6.5,6.2,8,10.5c3.3-1.6,6.5-1.6,9.7-0.2c1.1,0.4,2,1.1,2.7,2C242.9,225.9,242.6,228.2,240.7,229.5z M246.4,211.8
		c-0.6,0.5-1.5,0.7-3.3,0.7c-0.5-0.1-1.5-0.1-2.4-0.3c-0.5-0.1-1-0.2-1-0.8c-0.1-0.6,0.3-0.8,0.8-1c0.8-0.3,1.6-0.7,2.4-0.9
		c0.5-0.2,1-0.4,1.6-0.4c0.6,0,1.3,0,1.8,0.3C247.4,209.9,247.4,211.1,246.4,211.8z M269.9,270.2c0.4,1.3,1.2,2.5,2.1,3.6
		c0.3,0.4,0.6,0.8,0.8,1.2c0.1,0.1,0.1,0.5-0.1,0.6c-0.1,0.1-0.4,0.2-0.6,0.1c-0.4-0.1-0.7-0.4-1-0.6c-1.3-1-2.3-2.3-2.9-3.7
		c-0.9-2-1.4-4.2-1.3-6.5c0.1-1.4-1.3-2.7-2.6-2.6c-0.5,0-0.9,0.2-1.4,0.3c-0.5,0.1-1.1,0.3-1.6,0.3c-1.6,0.2-2.8-0.4-3.6-1.7
		c-0.8-1.3-0.5-2.5,0.3-3.7c1.6-2.4,4.9-2.9,7.4-1.1c0.3,0.2,0.6,0.4,1,0.8c-1.1-4.1-3.8-6.8-6.6-9.5c-1.8,0.2-3.6,0.3-5.3-0.1
		c-0.7-0.2-1.4-0.4-2-0.7c-1.5-0.8-1.7-2.5-0.7-3.8c0.6-0.8,1.4-1.3,2.4-1.5c0.2,0,0.5-0.1,0.8-0.2c-0.1-0.4-0.1-0.7-0.2-1
		c0-0.3-0.1-0.7,0-1c0.2-2,1.8-2.8,3.6-1.8c1.2,0.7,2.1,1.8,2.8,3c0.8,1.6,1.1,3.4,0.8,5.2c-0.1,0.6,0,1,0.4,1.4c1,1,1.9,2,2.8,3.1
		c1.9,2.3,3.1,4.9,3.7,7.8c0,0.2,0.1,0.4,0.1,0.5c0,0.1,0.1,0.1,0.1,0.1c1.2-0.8,2.4-1.7,3.5-2.5c-0.2-1-0.5-2.1-0.6-3.2
		c-0.2-1.7,0-3.4,0.8-5c0.4-0.9,1-1.8,1.9-2.4c1.6-1.1,3.5-0.6,4.2,1.3c0.2,0.5,0.2,1,0.3,1.5c0,0.5,0,1,0,1.6
		c0.6,0,1.1-0.1,1.5-0.1c1.4,0,2.6,0.8,3.1,2c0.5,1.2,0.2,2.5-0.9,3.5c-1.8,1.7-4,2.7-6.6,2.4c-1.5-0.2-2.7,0.5-3.9,1.1
		c-1.2,0.7-2,1.7-2.4,3c-0.2,0.7-0.4,1.4-0.6,2.1c0.1,0.1,0.2,0.1,0.3,0.2c0.2-0.3,0.3-0.6,0.6-0.8c1.1-1,2.3-1.7,3.8-2
		c1.4-0.2,2.6,0.1,3.7,1c1,0.8,1.4,2.2,1,3.4c-0.4,1.3-1.4,1.8-2.7,1.9c-1,0-2,0-2.9,0c-1.4,0-2.2,1-3,1.9
		C269.7,269.6,269.8,270,269.9,270.2z M275.5,282.2c-0.4-0.3-0.9-0.7-1.2-1.1c-0.2-0.2-0.3-0.6-0.2-0.9c0.1-0.2,0.5-0.3,0.8-0.5
		c0.6,0.2,1.2,0.4,1.7,0.6c2,1,3.5,2.5,4.4,4.5c0.8,1.8,1.3,3.8,2,5.7c0.2,0.5,0,0.9-0.5,1.2c-0.4,0.2-1,0.1-1.3-0.4
		c-0.4-0.6-0.7-1.3-1-1.9c-0.2-0.5-0.4-1.1-0.6-1.6C278.8,285.5,277.5,283.6,275.5,282.2z M288.5,289.6c0.2,3.2-0.2,6.4-0.8,9.6
		c-1.1,6.6-2.4,13.2-3.6,19.9c-0.9,5.5-3.1,10.4-6.4,14.8c-1.4,1.9-2.9,3.7-4.4,5.6c-0.2,0.3-0.5,0.5-0.8,0.8
		c-0.5,0.4-1.1,0.4-1.5,0c-0.4-0.4-0.5-1-0.2-1.6c0.1-0.3,0.3-0.5,0.5-0.7c1.3-1.7,2.5-3.5,3.8-5.2c2.4-3.3,4.5-6.8,5.5-10.9
		c0.6-2.5,1-5,1.5-7.5c0.9-5.2,1.9-10.3,2.7-15.5c0.4-2.5,0.8-5.1,0.9-7.7c0.2-3.2-0.5-6.3-2-9.2c-0.8-1.6-1.8-3.2-2.7-4.8
		c-0.3-0.6-0.6-1.1-0.9-1.7c0.8-0.5,1.4-0.4,1.8,0c0.6,0.5,1.2,1,1.7,1.6C286.5,280.6,288.2,284.8,288.5,289.6z M292.2,202.5
		c-1.7,4.3-4.8,7.3-9.1,9.1c-0.8,0.3-1.6,0.6-2.4,0.9c0.1,1.1,0.2,2.2,0.3,3.3c0.5,5.2-0.2,10.2-2.1,15.1c-1.8,4.5-4.8,8.1-8.1,11.4
		c-0.1,0.1-0.3,0.2-0.4,0.3c-0.4,0.3-0.8,0.3-1.2,0c-0.3-0.3-0.4-0.7-0.2-1.1c0.1-0.3,0.3-0.7,0.6-0.9c0.8-1,1.7-2.1,2.6-3.1
		c0.8-1,1.5-1.9,2.3-2.9c0-0.1-0.1-0.1-0.1-0.2c-0.9,0.1-1.8,0.3-2.7,0.4c-3.6,0.3-7.1,0.1-10.4-1.2c-2.8-1.1-5.1-2.8-6.7-5.4
		c-0.8-1.4-1.4-2.9-1.1-4.6c0.3-2.1,1.4-3.6,3.1-4.8c2.3-1.6,5-2,7.7-1.7c3.6,0.4,6.5,2.1,8.9,4.7c1.4,1.5,2.6,3.2,3.6,5.1
		c0.1,0.3,0.3,0.5,0.4,0.8c0,0,0.1,0.1,0.3,0.1c0.5-1.2,0.8-2.5,0.9-3.8c0.5-3.4,0.4-6.9-0.1-10.3c-0.3-2.4-0.8-4.7-1.7-7
		c-0.6-1.6-1.4-3.1-2.8-4.5c0,0.5,0,0.9-0.1,1.3c-0.2,2.5-1.1,4.5-3.3,5.8c-1.6,1-3.3,1.1-5,0.4c-1.6-0.6-2.8-1.7-3.8-3
		c-0.3-0.4-0.7-0.8-1.1-1.3c-0.2,0.3-0.4,0.6-0.6,0.9c-1,1.6-2.3,3-3.9,3.8c-2,1.1-4,1.3-6-0.1c-2-1.3-2.7-3.2-2.6-5.6
		c0-0.2,0-0.4,0.1-0.7c0-0.2,0-0.4,0.1-0.6c-1,0.1-1.9,0.4-2.9,0.4c-2.2,0.1-4.1-0.5-5.7-1.9c-1.8-1.6-2.4-3.7-1.5-6
		c0.5-1.5,1.5-2.7,2.7-3.8c-0.4-0.1-0.7-0.2-0.9-0.3c-2.1-0.6-3.6-1.8-4.7-3.6c-0.7-1.2-0.9-2.4-0.5-3.7c0.6-2.1,1.8-3.7,3.6-4.9
		c1.4-0.9,2.9-1.4,4.5-1.8c0.4-0.1,0.8-0.2,1.2-0.3c-0.3-0.5-0.6-1-0.8-1.5c-1.4-2.6-1.4-5.2,0.5-7.6c1.8-2.3,4.6-3.2,7.5-2.3
		c1.6,0.4,2.9,1.2,4.1,2.4c0.2,0.2,0.4,0.5,0.7,0.8c0.2-0.4,0.3-0.7,0.5-1c0.7-1.6,1.8-3,3.3-4c2.8-1.8,6-1.1,8,0.8
		c1.9,1.8,2.9,4.1,2.9,6.7c0,0.8,0,1.5,0,2.3c1-0.1,1.9-0.3,2.8-0.4c2.1-0.2,4.1,0.1,5.9,1.2c3.2,1.9,4.1,5.8,2.1,9
		c-0.7,1.1-1.6,2.1-2.9,2.8c0.3,0.3,0.6,0.5,0.8,0.8c1.6,1.7,2.4,3.6,2,5.9c-0.5,2.9-2.8,5-5.9,5.4c-0.6,0.1-1.2,0.1-1.9,0.2
		c1,0.9,2,1.6,2.8,2.4c0.8,0.9,1.5,1.9,2.3,3c0.1-0.3,0.2-0.6,0.3-0.9c0.7-2.7,1.9-5.2,3.9-7.2c1.1-1.1,2.3-1.9,3.9-2.3
		c2.7-0.7,6.2,1.2,6.4,5C292.9,199.9,292.8,201.2,292.2,202.5z M294.1,187.3c-1.6,1.1-3.6,0.8-4.9-0.7c-0.9-1-1.4-2.5-1.4-3.9
		c0-2.3,1.3-3.7,3.3-3.9c1.9-0.2,4.1,1.2,4.8,3.1C296.5,183.7,295.8,186.2,294.1,187.3z M297.9,197.3c-1.1,0-2.2-1.1-2.3-2.2
		c0-1.2,1-2.4,2.2-2.4c1.1,0,2.1,1,2.1,2.1C300,196.2,299.1,197.3,297.9,197.3z M302.3,205.9c-0.9,0-1.7-0.8-1.8-1.7
		c0-0.9,0.7-1.7,1.7-1.6c0.9,0,1.7,0.8,1.7,1.8C303.8,205.2,303.1,205.9,302.3,205.9z M308.6,211.7c-0.7,0-1.3-0.6-1.4-1.3
		c0-0.6,0.5-1.2,1.1-1.2c0.7,0,1.3,0.6,1.4,1.3C309.8,211.1,309.3,211.7,308.6,211.7z M314.9,214.7c-0.6,0-1.1-0.5-1.1-1.1
		c0-0.6,0.5-1.1,1.1-1.1c0.6,0,1.2,0.5,1.2,1.2C316,214.3,315.5,214.7,314.9,214.7z M340.3,219.1c0.6,0,1.1,0.6,1,1.2
		c0,0.6-0.7,1.2-1.3,1.2c-0.6,0-1.1-0.5-1.1-1.1C339,219.7,339.7,219.1,340.3,219.1z M341.4,223.8c0.7-0.5,1.5-0.8,2.2-1.1
		c0.6-0.2,1.2-0.1,1.7,0.3c0.3,0.3,0.5,0.7,0.8,1.1c-0.3,0.5-0.5,1.1-0.8,1.4c-0.8,0.7-1.6,1.4-2.5,2c-1.4,0.8-2.9,1.5-4.3,2.3
		c-0.1,0.1-0.2,0.1-0.3,0.1c-0.4,0-0.9,0.1-1.2-0.2c-0.4-0.3-0.2-0.8,0.1-1.2C338.4,226.9,339.7,225.1,341.4,223.8z M329.9,217.5
		c0.6,0,1.2,0.5,1.2,1.1c0,0.7-0.5,1.3-1.1,1.3c-0.6,0-1.2-0.5-1.2-1.1C328.7,218.2,329.3,217.5,329.9,217.5z M324.8,219.8
		c0.6-0.3,1.2-0.2,1.6,0.2c0.5,0.5,1,0.9,1.4,1.5c1.2,2,2,4.1,2.6,6.3c0.1,0.5,0.3,1.1-0.3,1.4c-0.6,0.3-1-0.1-1.3-0.4
		c-1.7-1.8-3.3-3.6-4.3-5.9c-0.2-0.5-0.3-1.1-0.5-1.7C324.1,220.7,324.2,220.1,324.8,219.8z M319.7,224.1c0-0.6,0.5-1.1,1.1-1.1
		c0.6,0,1.1,0.5,1.1,1.1c0,0.6-0.6,1.2-1.2,1.1C320.2,225.2,319.7,224.7,319.7,224.1z M331.4,233.7c-0.3,0.4-0.7,0.5-1.1,0.5
		c-0.9-0.1-1.8-0.3-2.7-0.5c-2.2-0.6-4.1-1.7-5.8-3.2c-0.3-0.3-0.7-0.7-0.9-1.1c-0.7-1.3,0-2.4,1.9-2.4c0.5,0.2,1.3,0.3,2,0.7
		c1.8,1.1,3.5,2.3,5.3,3.5c0.5,0.3,0.8,0.8,1.1,1.3C331.5,232.9,331.6,233.3,331.4,233.7z M333.2,233c-0.9-0.1-1-0.9-1.1-1.6
		c-0.4-1.9-0.9-3.7-1.1-5.7c0.2-1,0.4-2.1,0.7-3.1c0.2-0.6,0.5-1.1,0.9-1.6c1.4-1.6,3.7-1.1,4.3,0.9c0.3,0.9,0.3,2,0.2,2.9
		c-0.3,2.5-1.2,4.8-2.4,7C334.4,232.5,334,233.1,333.2,233z M345.2,234.9c-0.8,0.4-1.7,0.7-2.6,0.8c-0.9,0.1-1.9,0-2.8,0
		c0,0,0,0.1,0,0.1c-1.2-0.1-2.4-0.2-3.6-0.3c-0.5-0.1-0.9-0.2-1.4-0.4c-1-0.4-1.1-1.4-0.3-2c1.2-0.9,2.5-1.6,4-2
		c1.4-0.4,2.8-0.7,4.3-0.4c0.8,0.2,1.7,0.5,2.4,0.9C346.7,232.5,346.6,234,345.2,234.9z M347.3,230c-0.6,0-1.2-0.6-1.1-1.2
		c0-0.6,0.6-1.1,1.1-1.1c0.6,0,1.1,0.6,1.1,1.2C348.4,229.5,347.9,230,347.3,230z M351.8,222.9c-1.5-0.3-2.8-0.7-4-1.7
		c-0.4-0.3-0.9-0.7-0.7-1.3c0.5-0.4,0.9-0.1,1.3,0.1c1.3,0.6,2.6,0.8,4,0.9c1.1,0,2-0.2,2.9-0.8c0.7-0.5,1.2-1.1,1.1-2
		c0-0.3-0.2-0.6-0.5-0.8c-0.3-0.2-0.7-0.1-1,0.3c0,0,0,0.1-0.1,0.1c-0.2,0.4-0.4,0.7-0.9,0.6c-0.4-0.1-0.5-0.6-0.4-1.2
		c0.2-1.1,1.6-1.9,2.8-1.7c1.4,0.3,2.3,1.6,2.1,3.1c-0.2,1.6-1,2.8-2.3,3.6C354.8,222.9,353.4,223.2,351.8,222.9z M366.4,231.8
		c-0.7,0.9-1.5,1.5-2.6,1.8c-1.2,0.3-2.2,0-3-0.9c-0.9-1-0.8-2.5,0.2-3.2c0.2-0.1,0.7-0.2,0.9-0.1c0.2,0.1,0.1,0.6,0.2,0.9
		c0,0.1-0.1,0.3-0.2,0.4c-0.1,0.6,0.2,1,0.8,1c0.7,0,1.6-0.7,1.8-1.4c0.2-0.6-0.1-1.2-0.9-1.7c-0.9-0.5-1.8-0.5-2.8-0.2
		c-2.4,0.6-4.4,1.8-5.9,3.8c-0.1,0.1-0.1,0.2-0.2,0.3c-0.2,0.2-0.5,0.5-0.7,0.5c-0.5-0.1-0.5-0.6-0.4-1c0-0.3,0.1-0.6,0.3-0.8
		c1.8-3.3,4.7-5.1,8.1-5.4c1.8,0.1,3.1,0.5,4.2,1.6C367.3,228.6,367.5,230.4,366.4,231.8z"/>
	<path class="st23" d="M143.6,158.8c-0.4-2.4-1.6-4.5-3.1-6.4c-1.9-2.3-4.2-4.2-6.6-6c-0.9-0.7-1.8-1.3-2.7-2
		c-0.1,0-0.2,0.1-0.3,0.1c0.2,1.9,0.4,3.9,0.7,5.8c0.4,2.7,1.1,5.4,2.2,7.9c1.2,2.7,2.9,5,5.5,6.6c0.7,0.4,1.4,0.7,2.2,1.2
		c0.5-0.8,0.9-1.4,1.3-2C143.6,162.5,143.9,160.7,143.6,158.8z"/>
	<path class="st23" d="M149.1,165c1.5-0.6,2.7-1.5,4-2.4c4.7-3.5,5.5-10.6,3.4-14.9c-0.1-0.2-0.3-0.5-0.4-0.7
		c-0.2,0.1-0.2,0.1-0.3,0.1c-2.6,2.6-5,5.4-6.6,8.8c-1,2.2-2,4.5-3,6.8c-0.4,0.9-0.8,1.9-1.2,2.8C146.5,165.7,147.8,165.5,149.1,165
		z"/>
	<path class="st23" d="M122.2,167.9c-0.8,0.3-1.6,0.7-2.5,1.2c0.7,0.4,1.2,0.8,1.7,1c1.9,0.8,3.7,1.7,5.6,2.4
		c1.1,0.4,2.3,0.6,3.5,0.7c3.7,0.4,6.7-1,9.2-3.6c0.3-0.3,0.5-0.7,0.9-1.1c-2.6-1.6-5.3-2.5-8.2-2.6
		C128.9,165.9,125.5,166.7,122.2,167.9z"/>
	<path class="st23" d="M143.8,168c-0.4,1.6-1.3,2.8-2.4,4c1.1,0.5,2.1,0.8,3.1,1.3c1.4,0.9,2.7,1.9,4.1,2.9c0.2,0.2,0.5,0.3,0.8,0.5
		c0-1.6-0.1-3.1,0-4.5c0.1-1.5,0.3-2.9,0.4-4.5C147.8,168.2,145.9,168.3,143.8,168z"/>
	<path class="st23" d="M268.6,194.5c0.4,0,0.8,0.2,1.2,0.2c1.4,0.2,2.7,0.4,4.1,0.5c0.9,0.1,1.8-0.1,2.6-0.6
		c1.3-0.7,1.8-2.1,1.4-3.6c-0.4-1.2-1.1-2-2.2-2.5c-1.1-0.5-2.2-0.8-3.4-0.9c-0.8-0.1-1.4-0.6-1.5-1.4c-0.1-0.8,0.5-1.5,1.3-1.6
		c0.2-0.1,0.5,0,0.8-0.1c1.1-0.2,2.2-0.4,3.3-0.7c1.1-0.3,1.8-1.2,2.4-2.1c0.9-1.6,0.5-3.3-1-4.3c-0.4-0.3-1-0.6-1.5-0.7
		c-2.5-0.5-4.8-0.2-6.9,1.4c-0.9,0.7-1.6,0.8-2.3,0.4c-0.7-0.5-0.8-1.2-0.3-2.4c0.5-1.3,0.8-2.6,0.8-3.9c0.1-1.8-0.5-3.4-1.6-4.7
		c-1.4-1.6-3.4-1.8-5.1-0.5c-1.2,0.9-1.9,2.1-2.2,3.5c-0.3,1.2-0.1,2.3,0,3.5c0.1,1.3-0.2,1.9-1,2.1c-0.8,0.2-1.3-0.3-1.8-1.4
		c-0.6-1.3-1.3-2.5-2-3.7c-0.8-1.3-2.1-2-3.5-2.5c-2.4-0.7-4.5,1.1-4.2,3.5c0.3,2.2,1.2,4,3.1,5.3c0.4,0.3,0.8,0.5,1.2,0.8
		c0.6,0.5,0.8,1,0.6,1.6c-0.2,0.6-0.8,1-1.6,0.9c-0.5-0.1-1.1-0.2-1.6-0.4c-0.8-0.4-1.6-0.4-2.4-0.3c-1.5,0.2-3,0.5-4.4,1.2
		c-0.8,0.4-1.7,0.8-2.3,1.4c-2.4,2.5-2.1,4.5,1.2,6.1c1.2,0.6,2.5,0.6,3.7,0.3c0.7-0.1,1.4-0.3,2-0.3c0.7-0.1,1.2,0.3,1.4,0.9
		c0.2,0.5,0.1,1.1-0.4,1.6c-0.3,0.3-0.7,0.4-1,0.7c-1.1,0.7-2.2,1.4-3.2,2.2c-0.9,0.7-1.6,1.7-2,2.8c-0.4,1-0.1,1.9,0.7,2.7
		c1.2,1.1,2.6,1.5,4.1,1.4c1.5-0.1,2.8-0.7,4-1.6c1-0.8,1.6-0.9,2.3-0.4c0.6,0.5,0.7,1.1,0.3,2.3c-0.2,0.7-0.5,1.4-0.7,2.2
		c-0.2,0.7-0.3,1.4-0.2,2c0.1,2.1,1.9,3.2,3.8,2.4c0.3-0.1,0.7-0.3,1-0.5c1.8-1.3,2.9-3,3.3-5.2c0.1-0.4,0.1-0.7,0.2-1.1
		c0.5-1.2,1.9-1.4,2.6-0.4c0.3,0.3,0.4,0.7,0.6,1.1c0.7,1.3,1.4,2.6,2.5,3.7c0.6,0.6,1.3,1,2,1.4c0.8,0.4,1.7,0.3,2.5-0.3
		c0.9-0.7,1.4-1.6,1.5-2.7c0.3-2.2-0.5-3.9-2-5.4c-0.4-0.4-0.9-0.8-1.3-1.2c-0.5-0.5-0.6-1.3-0.3-1.8
		C267.2,194.8,267.8,194.4,268.6,194.5z M273,189.6c1,0,1.7,0.7,1.7,1.6c0,0.9-0.8,1.6-1.8,1.6c-0.9,0-1.7-0.7-1.7-1.6
		C271.1,190.3,271.9,189.6,273,189.6z M273.2,178.9c1,0,2.2,1.2,2.1,2.1c0,1-0.9,1.7-1.9,1.6c-1.1,0-2-1-2-2
		C271.4,179.7,272.2,178.9,273.2,178.9z M242.3,186.2c-1.1,0-2.1-0.8-2.1-1.8c0-0.9,1.2-2,2.3-2c1,0,1.9,0.9,1.9,1.9
		C244.3,185.3,243.4,186.2,242.3,186.2z M244.8,199c-1,0-1.9-0.8-1.9-1.8c0-1.1,1.1-2.2,2.1-2.2c1,0,1.9,0.9,1.9,2
		C247,198,246,199,244.8,199z M262.6,168.6c1,0,2,0.9,2,1.9c0,0.9-0.9,1.5-2.1,1.5c-0.9,0-1.7-0.7-1.7-1.6
		C260.7,169.5,261.6,168.6,262.6,168.6z M259.2,178.2c0.1-0.5,0.7-0.9,1.5-0.9c0.1,0,0.1,0,0.3,0c1.8,0.1,3.3,1,4.7,2.1
		c0.3,0.3,0.5,0.7,0.3,1.1c-0.2,0.5-0.6,0.7-1,0.6c-0.7-0.1-1.4-0.3-2.1-0.5c-0.9-0.3-1.7-0.6-2.5-1
		C259.4,179.2,259,178.8,259.2,178.2z M251.6,180.9c0.7-1.1,1.6-1.8,2.8-2.4c0.4-0.2,0.9-0.4,1.4-0.6c0.3,0.2,0.7,0.3,0.9,0.6
		c0.3,0.3,0.2,0.8,0,1.1c-0.4,0.5-0.9,1-1.4,1.4c-0.6,0.5-1.3,0.9-2,1.4c-0.6,0.4-1,0.4-1.4,0.1C251.4,182,251.3,181.4,251.6,180.9z
		 M249.8,173.9c-0.9,0-1.9-1-1.9-2c0-0.8,0.6-1.5,1.4-1.5c0.9-0.1,1.8,0.9,1.9,2C251.2,173.2,250.6,173.9,249.8,173.9z M251.6,191.7
		c-0.3,0-0.7-0.2-0.9-0.4c-0.2-0.2-0.4-0.6-0.4-0.9c-0.2-1.1-0.5-2.2-0.6-3.3c-0.1-0.4,0.1-0.9,0.2-1.3c0.1-0.5,0.4-0.8,0.9-0.8
		c0.4,0,0.7,0.3,0.9,0.7c0,0,0,0.1,0,0.1c0.3,1.5,0.6,2.9,0.9,4.2c0,0.4,0,0.7-0.1,0.9C252.3,191.3,252,191.7,251.6,191.7z
		 M253.5,205.3c-0.8,0-1.5-0.8-1.5-1.6c0-1,0.9-1.9,2-1.9c1,0,1.6,0.7,1.6,1.7C255.5,204.4,254.5,205.3,253.5,205.3z M258.7,196
		c-0.1,0.5-0.6,0.9-1.2,0.8c-1.5-0.4-3-0.8-4.5-1.3c-0.5-0.2-0.7-0.6-0.6-1.2c0.1-0.5,0.6-0.8,1.2-1c1.5,0.5,3,0.9,4.4,1.4
		C258.7,195,258.8,195.5,258.7,196z M258.6,192.2c-3.1,0-5.1-2.4-4.7-5.4c0.4-2.6,2.3-4.6,4.9-4.9c1.2-0.2,2.3,0.1,3.3,0.8
		c1.2,0.9,2,2.1,2.4,3.5c0.5,2-0.8,4.4-2.9,5.3C260.7,192,259.6,192.2,258.6,192.2z M261.5,196.7c-0.3-0.4-0.4-1.1,0.1-1.5
		c1.1-0.9,2.2-1.8,3.4-2.6c0.7-0.4,1.4,0.1,1.4,1.1c-0.1,0.2-0.2,0.7-0.6,1c-0.9,0.8-1.9,1.6-2.9,2.3
		C262.4,197.4,261.8,197.2,261.5,196.7z M267.9,202.5c0,0.9-0.8,1.5-1.8,1.5c-1,0-1.8-0.9-1.8-1.8c0.1-1,0.8-1.7,1.8-1.7
		C267,200.5,267.9,201.5,267.9,202.5z M266.4,184.8c0-0.3,0-0.5,0-0.8c0.1-0.5,0.3-0.9,0.8-0.9c0.4,0,0.8,0.1,1.1,0.3
		c0.3,0.3,0.6,0.8,0.7,1.2c0.2,1.1,0.4,2.1,0.6,3.2c0,0-0.1,0-0.1,0c0,0.4,0,0.7-0.1,1.1c-0.1,0.5-0.3,1-0.9,1.1
		c-0.5,0.1-1-0.2-1.2-0.8C266.7,187.8,266.5,186.3,266.4,184.8z"/>
	<path class="st23" d="M268.3,221.4c-2.7-1.7-5.5-2-8.5-1.2c-0.9,0.3-1.8,0.8-2.6,1.4c-1.4,1.1-1.7,2.7-1.1,4.3
		c0.2,0.6,0.6,1.2,0.9,1.7c1.5,2.1,3.6,3.3,6,4.1c2.6,0.8,5.2,0.8,7.9,0.7c0.6,0,1.3-0.1,1.9-0.2c0-0.1,0-0.1,0-0.2
		c-0.2-0.1-0.4-0.2-0.6-0.3c-1.8-0.7-3.7-1.3-5.5-2.1c-2-0.8-4.1-1.8-6.1-2.7c-0.7-0.3-0.9-1-0.6-1.5c0.3-0.5,0.8-0.7,1.5-0.4
		c0.7,0.2,1.3,0.4,2,0.7c3.6,1.3,7.1,2.6,10.7,3.9c0.3,0.1,0.5,0.1,1.1,0.2c-0.7-1.2-1.3-2.3-2-3.3
		C272.1,224.5,270.4,222.8,268.3,221.4z"/>
	<path class="st23" d="M286.1,196.6c-0.8,0.4-1.5,1-2.1,1.7c-1.9,2-2.9,4.4-3.4,7.1c-0.2,0.8-0.2,1.7-0.4,2.5
		c0.4-0.2,0.6-0.5,0.7-0.7c1.2-2,2.4-3.9,3.6-5.9c0.2-0.3,0.4-0.6,0.6-0.8c0.4-0.4,0.9-0.4,1.3-0.1c0.4,0.3,0.5,0.7,0.4,1.2
		c-0.1,0.3-0.3,0.6-0.4,0.9c-1.2,2.1-2.3,4.2-3.6,6.4c0.2,0,0.4,0,0.4-0.1c2.9-1.6,5.1-3.9,6.3-7.1c0.3-0.9,0.5-1.8,0.4-2.8
		C289.9,196.7,288.1,195.6,286.1,196.6z"/>
	<path class="st23" d="M209,222.3c-0.9-0.3-2-0.4-3-0.4c-2.8,0.1-5.4,1.1-7.8,2.5c-2.8,1.6-5.1,3.9-7,6.4c-0.8,1.1-1.7,2.2-2.6,3.3
		c0.5,0.9,1,1.8,1.5,2.8c0.3,0,0.6,0,0.8,0c2.7-0.4,5.3-1.1,7.8-2.1c3.5-1.5,6.8-3.2,9.7-5.8c0.8-0.7,1.6-1.6,2.2-2.6
		C211.6,224.6,211,223,209,222.3z M205.2,227.7c-0.6,0.3-1.3,0.5-1.6,0.6c-1.2,0-1.7-0.4-1.9-0.9c-0.2-0.6,0-1.2,0.7-1.7
		c0.5-0.3,1.1-0.6,1.6-0.8c0.8-0.3,1.7,0.2,2,0.9C206.3,226.5,206,227.2,205.2,227.7z"/>
	<path class="st23" d="M181.1,227.6c-1-3.6-2.3-7-4.6-9.9c-0.6-0.8-1.4-1.6-2.1-2.3c-1-0.9-2.1-1.5-3.4-1.9c-1.3-0.4-2.2,0-2.8,1.2
		c-0.3,0.7-0.5,1.4-0.6,2.2c-0.1,1.8,0.5,3.5,1.3,5.1c2.3,4.5,5.7,8,9.5,11c1.2-0.5,2.4-1,3.7-1.5
		C181.8,230.3,181.5,228.9,181.1,227.6z M173.2,220.9c-0.6,0.3-1.1,0-1.5-0.4c-0.7-0.7-1.1-1.6-1.2-2.6c-0.1-0.7,0.3-1.3,0.8-1.5
		c0.5-0.2,1.1,0,1.6,0.6c0.6,0.8,0.9,1.6,1,2.5C173.9,220.1,173.7,220.6,173.2,220.9z"/>
	<path class="st23" d="M162.9,227.7c-1.5-0.5-3-0.5-4.5-0.3c-1.7,0.2-2.3,1.2-1.6,2.8c0.4,0.9,1,1.8,1.6,2.5
		c1.2,1.4,2.7,2.4,4.3,3.3c3.1,1.6,6.4,2.5,9.9,2.8c1.1,0.1,2.3,0,3.3-0.2c0.3-1.3,0.5-2.4,0.8-3.7c-2.7-2-5.5-3.8-8.6-5.2
		C166.4,228.9,164.7,228.3,162.9,227.7z M163.8,234c-0.9-0.2-1.9-0.7-2.7-1.5c-0.6-0.7-0.2-1.7,0.8-2c1.1-0.3,3.2,0.8,3.6,1.8
		C166,233.2,165.2,234,163.8,234z"/>
	<path class="st23" d="M185,231.6c0.4,0.2,0.9,0.4,1.4,0.6c0.1-0.1,0.2-0.2,0.2-0.3c1.6-2.7,2.8-5.6,3.6-8.6c0.9-3.1,1.2-6.3,1-9.6
		c-0.1-1.5-0.5-3-1.3-4.3c-1-1.6-2.4-1.8-3.6-0.3c-0.6,0.7-1.1,1.7-1.4,2.6c-1.1,2.9-1.3,5.9-1.2,8.9
		C183.7,224.2,184.3,227.9,185,231.6z M186.2,212.1c0.5-0.8,1.5-0.8,2.1,0c0.8,1.1,0.7,3.1-0.3,4c-0.6,0.6-1.5,0.5-1.9-0.3
		c-0.3-0.5-0.3-1.2-0.5-1.9C185.7,213.3,185.9,212.6,186.2,212.1z"/>
	<path class="st23" d="M182.2,234.6c-2,0.2-3.4,1.6-3.6,3.7c2.9,0.1,5.8-0.2,8.6-0.6C186.7,235.5,184.8,234.4,182.2,234.6z"/>
	<path class="st23" d="M142.1,238.9c0.7-0.2,1.5-0.4,2.2-0.7c1.3-0.7,1.9-2,1.6-3.4c-0.6-0.1-1.2-0.1-1.8-0.2
		c-1.2-0.1-1.7-0.7-1.8-1.9c0-0.4,0-0.7-0.1-1.1c-0.2-0.9-0.8-1.4-1.7-1.4c-0.9,0-1.9,0.1-2.7,0.1c-1.5,2.2-2.9,4.2-4.4,6.3
		c1.7-0.8,3.5-1.7,5.2-2.5c0.2-0.1,0.5-0.3,0.7-0.3c0.3,0,0.6,0.1,0.7,0.3c0.1,0.2,0.1,0.6-0.1,0.8c-0.1,0.2-0.4,0.4-0.7,0.5
		c-1.5,0.9-3,1.8-4.5,2.7c-0.3,0.2-0.5,0.3-1,0.6c1.3,0.1,2.4,0.2,3.5,0.3C138.9,239.3,140.5,239.2,142.1,238.9z"/>
	<path class="st23" d="M113,249.1c-0.8,2.8-0.5,5.6,0.7,8.2c1.3,2.9,3.4,5.2,5.7,7.4c0,0,0.1,0,0.2-0.1c-0.6-1.5-1.3-2.9-1.9-4.4
		c-0.8-1.7-1.6-3.4-2.4-5.1c-0.2-0.3-0.3-0.7-0.4-1c-0.1-0.4,0-0.7,0.4-0.9c0.4-0.2,0.7-0.1,1,0.3c0.2,0.3,0.4,0.6,0.6,0.9
		c1.3,2.5,2.5,4.9,3.8,7.4c0.2,0.3,0.3,0.6,0.6,1.1c-0.1-6.5-3-11.5-7-16.1C113.5,247.5,113.2,248.3,113,249.1z"/>
	<path class="st23" d="M129.6,229.9c0.1-0.7,0.1-1.4,0.3-2c0.1-0.3,0.4-0.6,0.6-0.6c0.4-0.1,0.6,0.3,0.6,0.6c0,0.1,0,0.3,0.1,0.4
		c0.2,1.7,0.2,3.5-0.2,5.2c-0.1,0.7-0.2,1.3-0.3,2.1c0.2-0.1,0.3-0.1,0.4-0.2c1.5-1.9,3-3.8,4-5.9c0.3-0.6,0.5-1.4,0.6-2.1
		c0.2-1.2-0.4-2.1-1.6-2.4c-0.8-0.2-1.6-0.2-2.4-0.1c-1.9,0.3-3.9,0.7-5.8,1c-0.3,0.1-0.7,0.2-1.1,0.3c1.3,2.7,3.1,4.9,4,7.7
		C129.2,232.6,129.4,231.2,129.6,229.9z"/>
	<path class="st23" d="M142,244.2c0.4,0.3,0.9,0.6,0.6,1.2c-0.2,0.4-0.7,0.4-1.4,0c-1.1-0.6-2.1-1.3-3.1-2c0,0-0.1,0.1-0.1,0.1
		c0.7,1.1,1.4,2.1,2.1,3.2c0.1,0.2,0.2,0.3,0.3,0.4c1,1.6,3.4,1.3,4.3-0.1c0.4-0.6,0.7-1.3,0.9-2c0.3-1.2,0.5-2.4,0.7-3.6
		c0.1-0.5,0.1-1.1,0.2-1.8c-2.5,1.7-5.1,1.8-7.9,1.9C139.8,242.5,140.9,243.4,142,244.2z"/>
	<path class="st23" d="M128.8,237.1c-0.3,1.7-0.5,3.3-0.7,5c1.4-0.6,2.7-1.1,4.2-1.8c-0.7-0.6-1.2-1.1-1.8-1.6
		C130,238.2,129.4,237.7,128.8,237.1z"/>
	<path class="st23" d="M238.2,224.7c-2.6-1.3-5.2-1.2-7.8-0.3c-0.2,0.1-0.4,0.3-0.7,0.5c2.2,1.8,4.4,3.4,7.3,3.4
		c0.6,0,1.2-0.2,1.8-0.4c1.3-0.6,1.5-1.6,0.4-2.5C238.8,225.1,238.5,224.9,238.2,224.7z"/>
	<path class="st23" d="M220.4,240.8c-1.1,0.1-2.2,0.4-3.3,0.6c-0.3,0.1-0.6,0.5-0.9,0.7c0.3,0.3,0.5,0.6,0.8,0.9
		c0,0.1,0.1,0.1,0.2,0.1c1.6,0.7,3.2,1.2,4.9,0.6c1.7-0.5,3.3-1.3,4.9-2c0,0,0.1-0.1,0.2-0.3C224.8,241,222.6,240.7,220.4,240.8z"/>
	<path class="st23" d="M224.9,254.3c-0.1,0-0.2,0-0.3,0c-1.1,2.1-2.1,4.2-2.3,6.6c-0.1,0.8,0.1,1.6,0.2,2.3c0.1,0.5,0.4,1.1,1.1,1.1
		c0.6,0.1,0.9-0.5,1.2-1c0.8-1.5,1.2-3.1,0.9-4.7C225.5,257.2,225.1,255.7,224.9,254.3z"/>
	<path class="st23" d="M220,227.9c-0.5,0.2-1,0.5-1.5,0.9c-0.8,0.8-0.6,1.5,0.4,1.9c0.8,0.3,1.7,0.3,2.5,0.1c2.4-0.8,4-2.4,5.5-4.4
		c-0.1-0.1-0.1-0.2-0.2-0.3C224.5,226.7,222.2,227.3,220,227.9z"/>
	<path class="st23" d="M235.3,247.9c0.6,0.3,1.3,0.2,1.8-0.4c0.5-0.6,0.5-1.2,0.1-1.8c-0.4-0.6-0.9-1.1-1.5-1.5
		c-1.6-1.1-3.5-1.5-5.4-2c0.8,1.7,1.7,3.3,3,4.5C233.9,247.2,234.6,247.6,235.3,247.9z"/>
	<path class="st23" d="M223.2,207.3c-1.5-0.9-4.2,0.3-6,2.6c0.5,0.1,1,0.4,1.3,0.2c1.2-0.4,2.3-0.9,3.5-1.5
		C222.5,208.4,223,208,223.2,207.3z"/>
	<path class="st23" d="M216.6,214c-0.1,0-0.2,0-0.3,0c-0.1,1-0.2,1.9-0.2,2.9c0,0.4,0.2,1,0.4,1.3c0.2,0.3,0.7,0.6,1,0.6
		c0.5,0,0.5-0.6,0.5-1.1c0-0.2,0-0.4-0.1-0.5C217.8,216,217.2,215,216.6,214z"/>
	<path class="st23" d="M121.4,208.5c0,1.9,0.4,3.7,0.9,5.5c0.4,1.3,0.9,2.5,1.8,3.4c0.3,0.4,0.8,0.7,1.2,1.1c0.8-1,0.8-1.9,0.4-2.8
		c-0.5-1.1-1.1-2.2-1.7-3.3c-0.7-1.2-1.5-2.3-2.2-3.5C121.6,208.9,121.5,208.7,121.4,208.5z"/>
	<path class="st23" d="M124.5,203.6c0.9,1.4,2.1,2.6,3.8,3.1c0.2,0.1,0.6,0,0.8-0.1c0.1-0.1,0.1-0.5,0-0.7c-0.5-0.7-1-1.5-1.7-2.1
		c-1.3-1.3-2.7-2.5-3.6-4.2C123.4,201,123.7,202.3,124.5,203.6z"/>
	<path class="st23" d="M114.9,196.4c1.2,2.2,5.7,1.9,7.9-0.6C120.5,195.4,116,195.7,114.9,196.4z"/>
	<path class="st23" d="M124.1,186.1c-0.8,0.6-0.9,1.3-0.6,2c0.5,1.7,1.6,2.9,3.2,3.7c0.4-0.3,0.7-0.5,1.2-0.8
		C126.4,189.4,125.8,187.3,124.1,186.1z"/>
	<path class="st23" d="M131.2,192.3c-0.8,0.5-0.7,1.3-0.6,2c0.3,2.1,1.5,3.4,3.4,4.6c-0.1-0.5-0.1-0.8-0.2-1c-0.2-0.5-0.5-1-0.8-1.4
		c-0.8-1.2-1.6-2.4-1.6-3.8C131.4,192.5,131.3,192.4,131.2,192.3z"/>
	<path class="st23" d="M136.3,185.8c0.2,0.9,0.5,1.7,0.9,2.6c0.2,0.6,0.7,0.9,1.5,0.7c-0.6-1.7-0.3-3.7-1.7-5.1
		C136.2,184.5,136.1,185.2,136.3,185.8z"/>
	<path class="st23" d="M147.9,198.9c-1.1,0.3-2,0.9-2.7,1.9c-0.2,0.3-0.3,0.6-0.4,0.9c0.1,0.1,0.1,0.1,0.2,0.2
		c1.4-0.6,2.5-1.8,4-2.4C148.4,198.8,148.4,198.8,147.9,198.9z"/>
	<path class="st23" d="M148.1,193.5c0,0.5,0,1.1,0.8,1.4c0-1.4,0.2-2.7,0-4.1C148,191.7,148.1,192.6,148.1,193.5z"/>
	<path class="st23" d="M139.8,197c0.1-0.8,0.2-1.5,0.2-2.3c0-0.7,0.5-1.4,0.3-2.2C139.3,193.4,139,195.4,139.8,197z"/>
	<path class="st23" d="M87.3,114.2c0.3,0.1,0.4,0.2,0.6,0.2c1.5,0.2,3,0.4,4.4,0.7c1.2,0.2,2.5,0.5,3.7,0.9c1.4,0.5,1.8,1.5,1.4,2.9
		c-0.2,0.7-0.5,1.5-0.6,2.2c-0.4,1.7-0.8,3.3-1.1,5c-0.1,0.4-0.2,0.8,0.1,1.1c1-1,2.1-1.9,3-2.9c2.8-3,5.3-6.2,7.3-9.8
		c0.4-0.7,0.9-1.5,1-2.4C104.2,110.6,91.1,112,87.3,114.2z"/>
	<path class="st23" d="M69.2,149.6c-1,2.4-1.8,4.6-2.2,6.9c1.8,1.3,2.8,3.5,5,4.5c0.7-1.4,1.4-2.7,2.1-4c-0.9-1.3-1.7-2.5-2.5-3.7
		C70.8,152.1,70.2,150.8,69.2,149.6z"/>
	<path class="st23" d="M61.8,153.8c-0.1,1.9-0.2,3.8-0.2,5.7c0,0.3,0.1,0.5,0.2,0.9c0.3-0.1,0.5-0.2,0.6-0.3
		c0.9-0.8,1.8-1.5,2.6-2.3c0.3-0.2,0.4-0.7,0.4-1.1c0.2-1.9,0.7-3.8,1.3-5.6c0.1-0.3,0.2-0.6,0.3-1.1c-1.7,1.1-3.3,2.1-4.8,3.1
		C62,153.2,61.8,153.5,61.8,153.8z"/>
	<path class="st23" d="M72.3,143.7c-0.7,1.2-1.3,2.3-1.9,3.3c1.6,2.5,3.1,4.9,4.8,7.6c0.4-1,0.6-1.8,0.9-2.6
		c0.3-0.8,0.2-1.5-0.3-2.2c-1.1-1.8-2.1-3.6-3.1-5.4C72.6,144.2,72.5,144,72.3,143.7z"/>
	<path class="st23" d="M68,147c0.3-0.2,0.5-0.4,0.6-0.7c0.6-1,1.1-2,1.7-3.1c0.1-0.2,0.1-0.4,0.2-0.8c-2,0.9-3.7,1.6-5.5,2.4
		c-0.7,0.3-1.4,0.8-1.7,1.6c-0.4,1.2-0.7,2.4-1.1,3.7c0.4-0.1,0.5-0.1,0.6-0.2C64.6,149.1,66.3,148.1,68,147z"/>
	<path class="st23" d="M277.7,255.2c1.1-0.1,2.1-0.7,2.9-1.4c0.3-0.2,0.7-0.5,0.4-0.9c-0.2-0.2-0.6-0.3-0.9-0.3
		c-0.4,0-0.9,0.1-1.3,0.2c-1.7,0.3-2.4-0.3-2.3-2c0-0.6,0.1-1.2,0.1-1.7c0-0.6,0.1-1.2-0.4-1.6c-2,1-2.8,4.8-1.4,7.8
		C275.7,255.2,276.7,255.3,277.7,255.2z"/>
	<path class="st23" d="M256.7,239c0.1,0.7,0.2,1.2,0.3,1.6c0.1,0.5,0.3,0.9,0.4,1.3c0.3,1.1-0.4,1.8-1.5,1.6c-0.3,0-0.6-0.1-1-0.2
		c-0.9-0.1-1.4,0.2-1.7,1.1c1.1,0.8,3.6,1.1,6.3,0.7C260.1,242.8,258.9,240,256.7,239z"/>
	<path class="st23" d="M263.1,258.1c-1.2-0.4-2.6-0.1-3.2,0.9c-0.3,0.4-0.5,0.7-0.2,1.2c0.2,0.5,0.6,0.7,1.2,0.7
		c0.2,0,0.4,0,0.6-0.1c1.2-0.3,2.4-0.5,3.7-0.8C264.7,259.1,264,258.4,263.1,258.1z"/>
	<path class="st23" d="M275.1,263.7c-1.2-0.2-2.9,0.5-3.6,1.5c1.5,0,3,0,4.6,0C276.2,264.2,275.9,263.9,275.1,263.7z"/>
	<path class="st23" d="M257.1,185.8c-0.6,0.8-0.7,1.7-0.3,2.6c0.3,0.7,1,1.1,1.8,1.1c0.7-0.2,1.3-0.3,2-0.6c1.2-0.6,1.4-1.7,0.8-2.8
		C260.3,184.4,258.2,184.3,257.1,185.8z"/>
</g>
</svg>
